<svg xmlns="http://www.w3.org/2000/svg" viewBox="0 0 198.09 43.03"><defs><style>.cls-1{fill:#fff;stroke:#221714;stroke-miterlimit:10;stroke-width:0.07px;}.cls-2{fill:#221714;}.cls-3{fill:none;}.cls-4{fill:#2f94b6;}.cls-5{fill:#1a8d48;}.cls-6{fill:#16546f;}.cls-7{fill:#016887;}</style></defs><title>資產 37</title><g id="圖層_2" data-name="圖層 2"><g id="bg"><path class="cls-1" d="M43,21.52A21.49,21.49,0,1,1,21.52,0,21.48,21.48,0,0,1,43,21.52Z"/><path class="cls-2" d="M11.61,33.21l.53.32v-.05a.33.33,0,0,1,.49-.13.35.35,0,0,1,.13.54v0l.24.15a1,1,0,0,1,.32.25.18.18,0,0,1,0,.24l.32-.14c.1,0,.16-.07.19,0s.13.16.06.29a.85.85,0,0,1-.36.27,3.81,3.81,0,0,1-.64.24l.2.11c.07,0,.08.12,0,.22a.34.34,0,0,1-.23.16.41.41,0,0,1-.36,0,4.89,4.89,0,0,0-.41-.27h-.07a3,3,0,0,1-.42,0h0a4.07,4.07,0,0,1,.53.38,2,2,0,0,0,.33.15c.18.11.24.21.19.31a.18.18,0,0,1-.16.06,2,2,0,0,0-.45,0,6.53,6.53,0,0,0-.66.1h0a2.2,2.2,0,0,1,.06.37v.07l.51.21c.1.06.12.13.06.22a.22.22,0,0,1-.29.13l-.39-.12a3.81,3.81,0,0,1-.22.47,1.5,1.5,0,0,1-.47.55.93.93,0,0,1-.57.07,2.16,2.16,0,0,1-.77-.31C9.11,38,9,37.89,9,37.8a1.7,1.7,0,0,0,.07-.53c0-.08.1-.09.18-.05a2.23,2.23,0,0,0,.35.28,1.34,1.34,0,0,0,.49.19.49.49,0,0,0,.34-.1,1.11,1.11,0,0,0,.28-.34l0-.07c-.62-.17-1.21-.31-1.79-.42-.18-.11-.24-.23-.15-.38a.52.52,0,0,1,.24-.23.47.47,0,0,1,.29,0l1.57.56a.9.9,0,0,0-.11-.51c0-.11-.05-.17,0-.2s.14-.15.24-.09a.67.67,0,0,1,.16.17l0,0a3.46,3.46,0,0,1,.47-.06l.05,0s-.11-.1-.37-.25L11,35.55l-.23-.07a.24.24,0,0,1-.09-.08h-.1a2.16,2.16,0,0,1-.84-.19.58.58,0,0,1-.24-.37.6.6,0,0,1,0-.45.11.11,0,0,1,.18,0,1.21,1.21,0,0,0,.3.24,3,3,0,0,0,.8.32,5.78,5.78,0,0,0,.71.05l-.54-.32a3.1,3.1,0,0,0-.76-.29C10,34.23,10,34.1,10,34a.44.44,0,0,1,.26-.19.46.46,0,0,1,.31,0l.17.14.89.5.21-.42a4.94,4.94,0,0,0-.73-.32.26.26,0,0,1-.11-.39.38.38,0,0,1,.22-.15A.42.42,0,0,1,11.61,33.21Zm3.21,3.71a.25.25,0,0,1,.11.39,6.12,6.12,0,0,1-1.17,1.23l-.09.07a3.35,3.35,0,0,0,.39.81,3.58,3.58,0,0,0,.56.59c.11.11.14.2.1.28s-.24.17-.53.19a1.12,1.12,0,0,1-.56-.1.42.42,0,0,1-.21-.25,3.32,3.32,0,0,1-.29-.79L13,38.93l-.38.11a1.26,1.26,0,0,1-.85,0,1,1,0,0,1-.42-.6.68.68,0,0,1,0-.53c.06-.09.11-.12.17-.09l.35.29a1.15,1.15,0,0,0,.73.15,1.26,1.26,0,0,0,.28-.05,1.13,1.13,0,0,0,0-.18c0-.42-.07-.75-.1-1a.23.23,0,0,1,0-.15.27.27,0,0,1,.42-.09.4.4,0,0,1,.17.28,6.6,6.6,0,0,0,.13.88l.05,0a3.16,3.16,0,0,0,.86-.91C14.52,36.86,14.66,36.82,14.82,36.92Zm-2.46-2.06a6.1,6.1,0,0,0,.69-.19l-.59-.33-.28.41Zm2.58.13c.15.08.19.19.11.32a.47.47,0,0,1-.23.21l-.26.21,0,0c.76.45,1.28.73,1.57.87.09,0,.1.14,0,.27a.39.39,0,0,1-.25.17.47.47,0,0,1-.39,0,3.25,3.25,0,0,0-.78-.57,2.93,2.93,0,0,0-.8-.27.18.18,0,0,1-.07-.05l-.12.07c-.14.08-.23.11-.28.08a.61.61,0,0,1-.26-.35.46.46,0,0,1,0-.4c0-.09.13-.09.27,0a1.11,1.11,0,0,0,.54-.12,2.65,2.65,0,0,0,.7-.43C14.85,35,14.92,35,14.94,35Z"/><path class="cls-2" d="M21.81,36.55c.3,0,.45.12.45.37l-.09.33,2,0c.24,0,.59,0,1.06-.08.15,0,.22,0,.22.12a.79.79,0,0,1-.22.47.7.7,0,0,1-.5.32c-.77-.1-1.29-.16-1.57-.18-.49,0-1-.06-1.59,0a.37.37,0,0,1,0,.12l0,0c-.17.12-.3.22-.41.28l-.3.19c0,.06,0,.08.1.08a1.89,1.89,0,0,0,.51.09,11.64,11.64,0,0,0,1.25-.09c.07,0,.1,0,.1-.06h0a1.74,1.74,0,0,0-.26-.16s0,0,0,0c0-.21.11-.32.34-.32a.19.19,0,0,1,.1,0c.18.18.4.41.64.69a.13.13,0,0,1,0,.1.26.26,0,0,1-.28.3A1.6,1.6,0,0,0,23,39c-.8.08-1.35.13-1.65.13a1.88,1.88,0,0,0-.42,0,2.74,2.74,0,0,0-.58.07c-.3,0-.45-.09-.45-.29a.53.53,0,0,1,.15-.29l.2-.13.29-.25a3.6,3.6,0,0,0,.29-.35l-.87.08c-.35,0-.83.11-1.45.24a.32.32,0,0,1-.36-.35s.05-.13.15-.25a.46.46,0,0,1,.33-.18,1.28,1.28,0,0,1,.35.06c1.12-.09,2-.15,2.5-.17A1.72,1.72,0,0,0,21.4,37C21.4,36.69,21.53,36.55,21.81,36.55Zm-1.49,2.88a.91.91,0,0,1,.27,0,2.41,2.41,0,0,1,.5,0c.68,0,1.34,0,2,0a2.12,2.12,0,0,0,.5-.08c.22,0,.33.08.33.25a.93.93,0,0,1-.05.24,3.44,3.44,0,0,0-.12,1.06,6.19,6.19,0,0,0,0,.63,3.18,3.18,0,0,1,.09.58.32.32,0,0,1-.35.36.28.28,0,0,1-.25-.1.54.54,0,0,1-.11-.32v-.45a24.42,24.42,0,0,0-2.69.17h0a1.79,1.79,0,0,1-.48.51,1.23,1.23,0,0,1-.52.22,1,1,0,0,1-.62-.27c-.21-.17-.32-.32-.32-.45s.06-.13.19-.14a2.6,2.6,0,0,0,.9-.13.83.83,0,0,0,.47-.43,1.67,1.67,0,0,0,.11-.71,3.17,3.17,0,0,0-.11-.7C20.07,39.5,20.15,39.43,20.32,39.43Zm.33,1.65h2.5c0-.11,0-.24,0-.37a15.56,15.56,0,0,0-2.46.17Zm.06-.85.11,0H22.9a1.06,1.06,0,0,1,.25,0v-.18c0-.13-.08-.2-.23-.19A15.42,15.42,0,0,0,21,40a1.45,1.45,0,0,1-.32,0A2.09,2.09,0,0,0,20.71,40.23Z"/><path class="cls-2" d="M28.29,35.58c.22-.18.4-.18.55,0a3.18,3.18,0,0,0,.16.32l.86-.74q.09-.09.21.06a.35.35,0,0,1,.07.27.43.43,0,0,1-.15.33A18.43,18.43,0,0,0,28.52,37a3.22,3.22,0,0,0-.53.61c-.16.14-.3.14-.41,0a.38.38,0,0,1-.07-.31.39.39,0,0,1,.13-.27l.19-.12.7-.58a1.27,1.27,0,0,0-.29-.18A.33.33,0,0,1,28.29,35.58Zm.16,1.69a.32.32,0,0,1,.52,0l.25.4.34-.3.57-.48-.4-.45a.23.23,0,0,1,.06-.33c.18-.15.34-.15.47,0l.23.46.12-.09.32-.31c.1-.09.21-.06.31.07a.32.32,0,0,1,.07.3.35.35,0,0,1-.12.24c-.31.23-.67.52-1.07.85s-.55.47-.79.71a5.61,5.61,0,0,0-.59.6c-.2.16-.36.17-.48,0a.49.49,0,0,1-.08-.35.37.37,0,0,1,.14-.28,1.49,1.49,0,0,0,.36-.22l.17-.15,0,0-.44-.24A.29.29,0,0,1,28.45,37.27Zm.95,1.34a.64.64,0,0,1,.27-.11c.46-.38.84-.69,1.16-.92a1.14,1.14,0,0,1,.21-.29c.15-.12.31-.08.48.13s.53.73.89,1.17c.17.2.17.37,0,.5a3.31,3.31,0,0,0-.68.45,10.28,10.28,0,0,0-.9.86c-.14.12-.29.09-.44-.09a1.82,1.82,0,0,0-.26-.41c-.15-.18-.43-.48-.82-.89C29.2,38.88,29.23,38.75,29.4,38.61Zm2.42.28c.05-.08,0-.18-.09-.31a7.2,7.2,0,0,0-.5-.66s-.07,0-.15,0l-.65.52-.37.32a.09.09,0,0,0,0,.14l.54.65c.09.11.17.12.25.06a6.28,6.28,0,0,1,.54-.49A1.69,1.69,0,0,1,31.82,38.89Zm-1.3-4.74c.43-.36.85-.68,1.24-1a1.27,1.27,0,0,0,.24-.26.32.32,0,0,1,.51.07c.06.06.07.21,0,.43a8.78,8.78,0,0,0-.09,1.19s0,0,.07,0a2.51,2.51,0,0,1,.83-.09.91.91,0,0,1,.6.3,1.07,1.07,0,0,1,.22,1,1.78,1.78,0,0,1-.61.91,1.19,1.19,0,0,1-.25.18,6.33,6.33,0,0,0,.45.45c.37.44.45.75.25.92s-.44.07-.72-.27c-.68-.88-1.14-1.46-1.38-1.76s-.64-.72-1.14-1.24a.68.68,0,0,1-.13-.18h0c-.13.11-.25.11-.34,0a.33.33,0,0,1,0-.39A1.14,1.14,0,0,1,30.52,34.15Zm.55.25a.4.4,0,0,1,.13.13c.21.24.39.47.57.68l.14-1.39s-.12,0-.24.07l-.51.42Zm1.14,1.32.68.78,0,0a1.67,1.67,0,0,0,.59-.76.5.5,0,0,0-.06-.46.55.55,0,0,0-.47-.15,1.37,1.37,0,0,0-.59.23l0,.08-.1.23A.39.39,0,0,1,32.21,35.72Z"/><path class="cls-2" d="M8.65,29.53,6.7,32.41,8.85,31.1c.19-.12.3-.21.33-.29a.43.43,0,0,0-.07-.33L9,30.36l.09-.05.68,1.12-.09.05-.07-.11a.38.38,0,0,0-.3-.22.91.91,0,0,0-.38.16L6.88,32.59a.77.77,0,0,0-.28.23.3.3,0,0,0,0,.19.92.92,0,0,0,.13.32l-.09.05-.55-.91,1.8-2.69-3.21.38-.55-.9.09-.06.06.11a.41.41,0,0,0,.3.22.86.86,0,0,0,.38-.16L7,28.1c.2-.12.31-.22.33-.29a.4.4,0,0,0-.07-.34l-.06-.11.08-.06.83,1.37-.08,0L8,28.61a.41.41,0,0,0-.3-.22.91.91,0,0,0-.38.16l-2.14,1.3,3.45-.4Z"/><path class="cls-2" d="M6.76,25.55l.1,0L7.37,27l-.1,0,0-.12A.41.41,0,0,0,7,26.67a.88.88,0,0,0-.42.07l-2.3.77a1.39,1.39,0,0,0-.35.15.3.3,0,0,0-.07.15.57.57,0,0,0,0,.26l.05.13-.1,0L3.3,26.7l.1,0,0,.13a.37.37,0,0,0,.24.27A.72.72,0,0,0,4.1,27l2.3-.77a1.39,1.39,0,0,0,.35-.15.26.26,0,0,0,.07-.15.57.57,0,0,0,0-.26Z"/><path class="cls-2" d="M2.85,26l-.13-1,2.5-2.63-2.15.27a.84.84,0,0,0-.42.13.45.45,0,0,0-.07.34l0,.13H2.49L2.33,22l.1,0,0,.14a.38.38,0,0,0,.18.31.73.73,0,0,0,.41,0L6.18,22v.1L3.51,25l2.29-.3a.76.76,0,0,0,.42-.12.42.42,0,0,0,.07-.34v-.13h.1l.16,1.29h-.1v-.13a.41.41,0,0,0-.19-.31.72.72,0,0,0-.41,0l-2.59.33A2.38,2.38,0,0,0,3,25.5a1,1,0,0,0-.08.26A.73.73,0,0,0,3,26Z"/><path class="cls-2" d="M6.34,19.56h.1l-.12,1.6h-.1V21a.44.44,0,0,0-.11-.35.92.92,0,0,0-.42-.09l-2.42-.18a1.36,1.36,0,0,0-.38,0,.25.25,0,0,0-.12.11.58.58,0,0,0-.09.25v.13h-.1l.11-1.6H2.8v.13a.41.41,0,0,0,.11.35.75.75,0,0,0,.42.09l2.42.18a1.28,1.28,0,0,0,.37,0,.27.27,0,0,0,.13-.11.54.54,0,0,0,.09-.25Z"/><path class="cls-2" d="M3.11,16l1.26.31,0,.1a1.52,1.52,0,0,0-.62,0,.87.87,0,0,0-.43.28,1,1,0,0,0-.24.44.64.64,0,0,0,.06.51.5.5,0,0,0,.34.27.43.43,0,0,0,.33,0,2.88,2.88,0,0,0,.73-.66,5.58,5.58,0,0,1,.59-.6,1,1,0,0,1,.42-.2.82.82,0,0,1,.44,0,1,1,0,0,1,.64.49,1.24,1.24,0,0,1,.1.9,2.47,2.47,0,0,1-.1.29,2,2,0,0,1-.18.32,2.78,2.78,0,0,0-.17.32.14.14,0,0,0,0,.11.32.32,0,0,0,.15.1l0,.1-1.25-.3,0-.1a1.64,1.64,0,0,0,.63-.05,1,1,0,0,0,.42-.28,1.11,1.11,0,0,0,.25-.51.73.73,0,0,0-.05-.57.55.55,0,0,0-.37-.3.72.72,0,0,0-.29,0,1,1,0,0,0-.31.17c-.07.06-.23.22-.48.49a5.78,5.78,0,0,1-.58.57,1.31,1.31,0,0,1-.42.22,1.09,1.09,0,0,1-.44,0,.94.94,0,0,1-.6-.47,1.11,1.11,0,0,1-.1-.83,1.51,1.51,0,0,1,.29-.58.67.67,0,0,0,.12-.2.19.19,0,0,0,0-.13.41.41,0,0,0-.15-.11Z"/><path class="cls-2" d="M5.25,11.67l.8.35,0,.1a.88.88,0,0,0-.34-.07.54.54,0,0,0-.31.09.88.88,0,0,0-.24.31l-.23.47L7.46,14.2a.74.74,0,0,0,.42.12.4.4,0,0,0,.24-.24L8.18,14l.09,0-.71,1.43-.09,0,.06-.12a.36.36,0,0,0,0-.36c0-.07-.14-.14-.33-.24L4.65,13.4l-.2.4a1.19,1.19,0,0,0-.13.35.51.51,0,0,0,.07.31.8.8,0,0,0,.31.29l0,.09-.77-.43Z"/><path class="cls-2" d="M11,10.19l-.64.77-2.16-.15L8,11l0,.06-.06.07.84.69c.18.15.31.23.38.22a.38.38,0,0,0,.3-.16l.09-.11.08.06-1,1.24L8.49,13l.09-.11a.36.36,0,0,0,.09-.36c0-.06-.11-.16-.27-.3L6.53,10.67c-.18-.15-.31-.23-.38-.22a.39.39,0,0,0-.3.17l-.09.11-.08-.07.87-1.05A3.18,3.18,0,0,1,7.18,9a1,1,0,0,1,.56-.17.92.92,0,0,1,.87.76,1.29,1.29,0,0,1-.17.77l1.32.09a2.16,2.16,0,0,0,.67,0,1.24,1.24,0,0,0,.44-.29ZM7.76,11a.33.33,0,0,0,.06-.06l0,0a1.2,1.2,0,0,0,.34-.77.72.72,0,0,0-.28-.59.77.77,0,0,0-.58-.2.78.78,0,0,0-.54.31,2,2,0,0,0-.24.37Z"/><path class="cls-2" d="M10.65,6l1-.79.06.08-.05,0a.59.59,0,0,0-.13.18.66.66,0,0,0-.09.29,2,2,0,0,0,0,.48l.13,1.68.57.75c.14.19.25.29.32.3a.43.43,0,0,0,.34-.1l.09-.08.07.08-1.28,1-.06-.08.11-.08A.4.4,0,0,0,12,9.36.88.88,0,0,0,11.77,9l-.54-.7L9.46,7.66a3.86,3.86,0,0,0-.41-.13,1,1,0,0,0-.31,0,.56.56,0,0,0-.15.08l-.06-.08,1.28-1,.07.08-.07,0a.45.45,0,0,0-.15.19.2.2,0,0,0,0,.22,1,1,0,0,0,.35.18l1.35.5-.11-1.37a.8.8,0,0,0-.1-.41.31.31,0,0,0-.11-.09.26.26,0,0,0-.15,0,.46.46,0,0,0-.2.1Z"/><path class="cls-2" d="M16.09,3.24a1.74,1.74,0,0,1,1.37.17,2,2,0,0,1,.91,1.18,2,2,0,0,1-.11,1.51A1.75,1.75,0,0,1,17.17,7a1.72,1.72,0,0,1-1.4-.16,2,2,0,0,1-.92-1.21A1.9,1.9,0,0,1,15,4.08,1.81,1.81,0,0,1,16.09,3.24Zm0,.21a1,1,0,0,0-.67.59,2.16,2.16,0,0,0,0,1.42,2.19,2.19,0,0,0,.78,1.24,1,1,0,0,0,.87.13,1.07,1.07,0,0,0,.72-.64,2,2,0,0,0,0-1.35A2.35,2.35,0,0,0,17,3.57,1,1,0,0,0,16.1,3.45Z"/><path class="cls-2" d="M20.19,2.79l.07,1.48.68,0a.51.51,0,0,0,.34-.12.71.71,0,0,0,.13-.42h.1L21.57,5h-.1a.89.89,0,0,0-.07-.31.38.38,0,0,0-.16-.15.75.75,0,0,0-.29,0l-.68,0,.06,1.18a1.26,1.26,0,0,0,.05.38.26.26,0,0,0,.12.11.48.48,0,0,0,.26,0h.13v.1l-1.61.08V6.28h.13a.43.43,0,0,0,.33-.15.87.87,0,0,0,.05-.43l-.12-2.42a1.71,1.71,0,0,0-.05-.38.43.43,0,0,0-.12-.11.58.58,0,0,0-.26-.06h-.13v-.1L21.9,2.5l.08.83h-.1A1.21,1.21,0,0,0,21.69,3a.45.45,0,0,0-.24-.16,1.07,1.07,0,0,0-.44,0Z"/><path class="cls-2" d="M25.77,3.22l-.38,1.44.8.21a.66.66,0,0,0,.44,0,.57.57,0,0,0,.26-.39l.1,0-.33,1.26-.1,0a1.79,1.79,0,0,0,0-.36.35.35,0,0,0-.12-.19.78.78,0,0,0-.33-.15l-.79-.21L25,6.05a1,1,0,0,0-.05.3.14.14,0,0,0,.05.1.46.46,0,0,0,.2.09l.61.16a1.64,1.64,0,0,0,.46.07.64.64,0,0,0,.31-.09,2.12,2.12,0,0,0,.47-.42l.11,0-.55.83-2.8-.74,0-.09.12,0a.57.57,0,0,0,.26,0,.18.18,0,0,0,.15-.1,1.12,1.12,0,0,0,.13-.34l.62-2.36a.81.81,0,0,0,0-.44.43.43,0,0,0-.29-.19l-.13,0,0-.09,2.8.73-.17.81-.1,0a1.7,1.7,0,0,0,0-.43.46.46,0,0,0-.16-.21,1.05,1.05,0,0,0-.37-.14Z"/><path class="cls-2" d="M27.12,7.23l.05-.09.12.07a.41.41,0,0,0,.37,0,.9.9,0,0,0,.25-.33l1.17-2.13a.69.69,0,0,0,.15-.42A.45.45,0,0,0,29,4.1L28.88,4l.05-.09,1.34.74a3.3,3.3,0,0,1,1,.79,1.52,1.52,0,0,1,.31.89,2,2,0,0,1-.26,1,1.91,1.91,0,0,1-1.05.92A2.11,2.11,0,0,1,28.59,8Zm1.07.28a2.84,2.84,0,0,0,.48.35A1.37,1.37,0,0,0,29.82,8a1.75,1.75,0,0,0,1-.87A1.73,1.73,0,0,0,31,5.83a1.43,1.43,0,0,0-.73-.91,2.77,2.77,0,0,0-.54-.21Z"/><path class="cls-2" d="M35,8.58l.07-.07.95.93L36,9.51l-.1-.1a.39.39,0,0,0-.37-.1.72.72,0,0,0-.32.24l-1.07,1.09a2.69,2.69,0,0,1-.69.55,1.06,1.06,0,0,1-.69.07A1.53,1.53,0,0,1,32,10.8a1.62,1.62,0,0,1-.52-.8,1.15,1.15,0,0,1,.08-.73,2.88,2.88,0,0,1,.58-.72l1-1.05a.83.83,0,0,0,.25-.39.43.43,0,0,0-.15-.3l-.1-.09.07-.08,1.16,1.14-.07.07-.1-.1a.4.4,0,0,0-.35-.13.89.89,0,0,0-.33.25L32.35,9a2.79,2.79,0,0,0-.32.39,1,1,0,0,0-.2.41.79.79,0,0,0,0,.4,1,1,0,0,0,.28.41,1.26,1.26,0,0,0,.58.35.84.84,0,0,0,.57,0,2.26,2.26,0,0,0,.67-.53L35,9.36A.77.77,0,0,0,35.28,9a.45.45,0,0,0-.15-.31Z"/><path class="cls-2" d="M38.55,13.24,37.49,14l0-.07a1.69,1.69,0,0,0,.46-.84,1.19,1.19,0,0,0-.17-.79,1.24,1.24,0,0,0-.5-.49,1.29,1.29,0,0,0-.77-.1,2.66,2.66,0,0,0-1,.38,2,2,0,0,0-.68.59,1.22,1.22,0,0,0-.25.71,1.52,1.52,0,0,0,.21.75,1.3,1.3,0,0,0,.46.47,2.2,2.2,0,0,0,.85.22v.1a1.91,1.91,0,0,1-1-.2,1.62,1.62,0,0,1-.65-.65,1.7,1.7,0,0,1-.14-1.6,2,2,0,0,1,.85-.94,2.21,2.21,0,0,1,1-.31,1.84,1.84,0,0,1,1,.23,1.91,1.91,0,0,1,.71.7,1.74,1.74,0,0,1,.24.79.36.36,0,0,0,0,.18.15.15,0,0,0,.11.08.46.46,0,0,0,.23,0Z"/><path class="cls-2" d="M37.47,17.48l-.39-1.39L36.44,16a.93.93,0,0,0-.34,0,.22.22,0,0,0-.13.12.81.81,0,0,0,0,.37l-.1,0-.32-1.13.09,0a.68.68,0,0,0,.19.26,1.56,1.56,0,0,0,.61.15l3.33.43,0,.09-2.65,2.11a1.52,1.52,0,0,0-.39.41.54.54,0,0,0,0,.38l-.1,0-.41-1.42.1,0a.54.54,0,0,0,.16.27.17.17,0,0,0,.17,0,1.06,1.06,0,0,0,.34-.21Zm.18-.13,1.28-1-1.63-.22Z"/><path class="cls-2" d="M40.51,21.8l-.88.1v-.11a1,1,0,0,0,.33-.1.51.51,0,0,0,.22-.24.75.75,0,0,0,0-.38l0-.53-2.86.18a.9.9,0,0,0-.43.1.43.43,0,0,0-.09.33v.13h-.11l-.1-1.59h.11v.13a.39.39,0,0,0,.17.33.87.87,0,0,0,.41,0L40.16,20l0-.45a1.27,1.27,0,0,0-.06-.37.54.54,0,0,0-.22-.23.71.71,0,0,0-.41-.1v-.1l.88,0Z"/><path class="cls-2" d="M36.58,24.2h-.1l.19-1.6h.11l0,.13a.41.41,0,0,0,.09.36.82.82,0,0,0,.42.11l2.4.31a1.7,1.7,0,0,0,.38,0,.31.31,0,0,0,.13-.1.49.49,0,0,0,.1-.25l0-.13.1,0-.2,1.59h-.1V24.5a.41.41,0,0,0-.09-.35.85.85,0,0,0-.41-.12l-2.41-.3a1.24,1.24,0,0,0-.38,0,.29.29,0,0,0-.13.1.72.72,0,0,0-.1.24Z"/><path class="cls-2" d="M39.62,27.32a1.72,1.72,0,0,1-.92,1,1.89,1.89,0,0,1-1.48.08A2,2,0,0,1,36,27.5a1.77,1.77,0,0,1-.14-1.42A1.74,1.74,0,0,1,36.82,25a2,2,0,0,1,1.52-.07,1.93,1.93,0,0,1,1.2,1A1.8,1.8,0,0,1,39.62,27.32Zm-.18-.11a1,1,0,0,0-.11-.88,2,2,0,0,0-1.18-.78,2.18,2.18,0,0,0-1.46-.06,1,1,0,0,0-.61.64,1.12,1.12,0,0,0,.13,1,2,2,0,0,0,1.13.73,2.36,2.36,0,0,0,1.49.08A1,1,0,0,0,39.44,27.21Z"/><path class="cls-2" d="M38.55,30l-.56.86-3.61.38,1.82,1.18c.19.13.33.19.4.17a.41.41,0,0,0,.28-.2l.07-.11.08.05-.71,1.1-.09-.06.08-.11a.41.41,0,0,0,.06-.36.79.79,0,0,0-.31-.27l-2.65-1.73.06-.08,3.88-.43-1.93-1.26A.84.84,0,0,0,35,29a.44.44,0,0,0-.27.21l-.07.11-.09-.06.71-1.09.09.05-.07.11a.41.41,0,0,0-.07.37,1,1,0,0,0,.31.27l2.19,1.42a1.29,1.29,0,0,0,.34-.07.74.74,0,0,0,.23-.14,1.19,1.19,0,0,0,.16-.19Z"/><path class="cls-3" d="M19.55,14.11l-2.64.82-.31,1h0L11.86,30.59a19.65,19.65,0,0,1,8.42-2.1c0-.52.33-1.61.42-2.33a7.06,7.06,0,0,0,.09-1.33c-2.37-.18-4.57-2.82-4.51-4.57a5.82,5.82,0,0,1,5.24,2.58,5.8,5.8,0,0,1,5.24-2.58c0,1.75-2.14,4.39-4.52,4.57a7.41,7.41,0,0,0,.1,1.33c.09.72.4,1.81.42,2.33a19.69,19.69,0,0,1,8.42,2.1L26.44,15.9h0l-.32-1-2.64-.82-.76-5.95c-.39,0-.8-.05-1.2-.05s-.81,0-1.21.05Z"/><path class="cls-4" d="M19,8.66l-2,6.27,2.64-.82.76-5.95c-.45,0-.9.11-1.34.19A.55.55,0,0,1,19,8.66Z"/><path class="cls-4" d="M16.6,15.9l-2.35.44a1.28,1.28,0,0,0-.9.79L9.85,28a13.6,13.6,0,0,0,1.93,2.63l.08,0Z"/><path class="cls-4" d="M28.78,16.34l-2.34-.44,4.74,14.69.07,0A13.24,13.24,0,0,0,33.19,28L29.68,17.13A1.26,1.26,0,0,0,28.78,16.34Z"/><path class="cls-4" d="M26.12,14.93l-2-6.27a.66.66,0,0,1,0-.31c-.43-.08-.88-.15-1.34-.19l.76,5.95Z"/><path class="cls-5" d="M31.18,30.59a19.69,19.69,0,0,0-8.42-2.1c0-.52-.33-1.61-.42-2.33a7.41,7.41,0,0,1-.1-1.33c2.38-.18,4.57-2.82,4.52-4.57a5.8,5.8,0,0,0-5.24,2.58,5.82,5.82,0,0,0-5.24-2.58c-.06,1.75,2.14,4.39,4.51,4.57a7.06,7.06,0,0,1-.09,1.33c-.09.72-.41,1.81-.42,2.33a19.65,19.65,0,0,0-8.42,2.1l-.08,0a13.36,13.36,0,0,0,19.47,0Z"/><path class="cls-6" d="M24.08,8.66l2,6.27.32,1h0l2.34.44a1.26,1.26,0,0,1,.9.79L33.19,28A13.37,13.37,0,0,0,24.06,8.35.66.66,0,0,0,24.08,8.66Z"/><path class="cls-6" d="M14.25,16.34l2.35-.44h0l.31-1,2-6.27a.55.55,0,0,0,0-.31A13.37,13.37,0,0,0,9.85,28l3.5-10.87A1.28,1.28,0,0,1,14.25,16.34Z"/><path class="cls-7" d="M53,13.7a.68.68,0,0,1,.88.13,1.1,1.1,0,0,1,.6.79A1.17,1.17,0,0,0,55,15a.76.76,0,0,1,.51.95c-.08.43-.51.81-1.27,1.14a.51.51,0,0,0-.26.5.3.3,0,0,0,.28.35,1.28,1.28,0,0,0,.88-.41,7.09,7.09,0,0,1,1.35-1.31,1.29,1.29,0,0,1,.62-.13q.64.14.48.48a1.68,1.68,0,0,1-.52.44c-.68.34-.72.69-.12,1,.32.48.09.87-.7,1.17-.54.18-1.07.34-1.61.47a1.64,1.64,0,0,0-.94.94c.12.13.35.15.7.06a.83.83,0,0,0,.36-.23c.36-.37.89-.24,1.57.37.48.3.83.23,1-.22a16.27,16.27,0,0,1,2.61-6c.27-.4.51-.57.74-.51a1.44,1.44,0,0,1,.68,1.23,10.93,10.93,0,0,1-1.24,2.61c0,.21.27.24.72.1a10.14,10.14,0,0,0,1.64-.64,1.14,1.14,0,0,1,1.59.29.62.62,0,0,1-.14,1,2.4,2.4,0,0,1-.8.28,2.34,2.34,0,0,0-1,.33,1.13,1.13,0,0,0-.24.54,18.76,18.76,0,0,0-.28,2.69,4.35,4.35,0,0,1-.3,1.34.6.6,0,0,0,.22.66A22.57,22.57,0,0,1,66,27.34c.41.39.39.59,0,.61l-.62-.05a2,2,0,0,0-.72-.06A4.32,4.32,0,0,1,61.36,27l-1.6-1.05A1.14,1.14,0,0,0,59,26a14.54,14.54,0,0,1-2.8.68c-.4,0-.6,0-.58-.05a2.28,2.28,0,0,1,.82-.65l1.6-.65c.56-.17.67-.46.32-.89a5.45,5.45,0,0,1-.82-1.33A2.21,2.21,0,0,0,55.67,22a1.15,1.15,0,0,0-1.09.45c-.26.3-.23.49.1.58a1.71,1.71,0,0,0,.85-.13c.4-.08.47.06.22.42-.57.33-.83.64-.81.93a3.94,3.94,0,0,1-.44,2.68,2.08,2.08,0,0,1-.86,1,3.19,3.19,0,0,0-.8.41c-.32.39-.62.43-.88.11a2,2,0,0,0-.22-.54q-.56-.63.06-.63a1.92,1.92,0,0,0,1.38-.57,2.44,2.44,0,0,0,.62-2.08c-.21-.15-.59-.08-1.12.21a13.36,13.36,0,0,0-1.61.81.76.76,0,0,1-.8,0c-.37-.29-.69-.27-.94.06a1.65,1.65,0,0,1-.92.82c-.32.14-.42,0-.28-.33a15.28,15.28,0,0,1,2.16-3.34c.4-.34.54-.67.42-1,0-.14.11-.29.32-.43a1.89,1.89,0,0,0,1-.7c0-.28-.35-.29-1,0a4.84,4.84,0,0,1-2.4.25.9.9,0,0,1-.38-.25c-.35-.48-.16-.89.56-1.22a9,9,0,0,1,1.6-.38l1.21-.29c.61-.12.86-.37.74-.75a.88.88,0,0,0-.26-.32,3.14,3.14,0,0,1-1.53-1c-.17-.2-.12-.42.14-.67a2.46,2.46,0,0,1,.78-.38c.55-.06.83-.29.85-.69A1.92,1.92,0,0,1,53,13.7Zm0,8.87c-.43-.48-.8-.46-1.1.05L50.77,24a1.85,1.85,0,0,0-.32.62c.2.1.49,0,.86-.17.54-.24,1.07-.47,1.61-.67C53.64,23.55,53.67,23.16,53,22.57ZM54.62,21a2.55,2.55,0,0,0-1.34.59c-.09.1,0,.26.34.48a2,2,0,0,0,.54.37c.07,0,.19-.2.36-.53A.84.84,0,0,0,54.62,21Zm5.8-1.17a1.39,1.39,0,0,0-1.53.62,1.48,1.48,0,0,1-.46.67c-.24.16-.24.38,0,.67s.5.67.79,1a.78.78,0,0,0,.62.44.44.44,0,0,0,.28-.37c.12-.85.26-1.7.42-2.56C60.54,20,60.5,19.86,60.42,19.81Z"/><path class="cls-7" d="M74.78,13.53c0-.22.36-.31,1-.27a3.42,3.42,0,0,1,1.6.69.85.85,0,0,1,.32.52c0,.18.09.29.38.35,1.85,0,3.67-.11,5.48-.3.89.33,1.34.81,1.32,1.42a.78.78,0,0,1-1,.75c-.54-.07-1.07-.16-1.61-.28a19.2,19.2,0,0,0-2.5-.15q-.54.09-.48.21a.89.89,0,0,0,.28.25c1.15.73,1.57,1.47,1.28,2.24a.84.84,0,0,1-1.42.29,1.62,1.62,0,0,0-1.21-.09c-1.52.2-3.17.5-5,.89h-.48c-.64-.16-.88-.51-.7-1.05a1.33,1.33,0,0,1,.82-.54c.37-.29.74-.61,1.1-.95.18-.29.22-.46.14-.52a2,2,0,0,0-1,.1c-.54.15-1.07.31-1.6.49a3.3,3.3,0,0,1-2.39-.07,2.07,2.07,0,0,1-.7-.62c-.4-.45-.29-.8.34-1.05,1.58-.26,3.64-.51,6.19-.77.37,0,.57-.11.61-.3a1.74,1.74,0,0,0-.71-.69A.42.42,0,0,1,74.78,13.53Zm3,6.74a1.31,1.31,0,0,1,2,.16,3.89,3.89,0,0,1,1,2.76q.1,1.32.12,2.64a3,3,0,0,1-.22,1.62.86.86,0,0,1-.54.6,2.82,2.82,0,0,0-.8.39,1.61,1.61,0,0,1-1.73.38q-.36-.29-.3-.57a1.3,1.3,0,0,0-.3-.66c-.33-.3-.39-.42-.18-.35a1.12,1.12,0,0,0,1.54-.81,12.63,12.63,0,0,0-.16-4v-.7a.81.81,0,0,0-1.26-.57l-1.6.47a.74.74,0,0,0-.77.64c0,.4.3.49.85.26a3,3,0,0,1,2.22-.18c.24.13.32.27.24.4a1.64,1.64,0,0,1-.52.43,11.23,11.23,0,0,1-2.41.46q-.81.22-.36,1.2a1.38,1.38,0,0,0,.91-.05c.53-.12,1.07-.22,1.6-.3s.91.15.92.6a.62.62,0,0,1-.66.27,10.47,10.47,0,0,0-2.41.36c-.13,0-.28.1-.46.29a4.88,4.88,0,0,1-.36,1.59c-.26.41-.44.62-.52.63a1.08,1.08,0,0,1-.36-.17,1.69,1.69,0,0,1-.38-.66,13.15,13.15,0,0,1,.18-5.2,6.1,6.1,0,0,1,.48-1.34c.24-.41.54-.51.88-.3a1.61,1.61,0,0,0,.6.08,16.29,16.29,0,0,1,2-.2A2.32,2.32,0,0,0,77.81,20.27Zm.48-3.71q0-.15-.36-.15a1.12,1.12,0,0,0-.84.4,1.47,1.47,0,0,1-.38.25,3.72,3.72,0,0,0-1.56,1.1c0,.16.26.2.64.13l2.4-.26c.42-.06.46-.29.14-.69A.83.83,0,0,1,78.29,16.56Z"/><path class="cls-7" d="M94.46,17.39c.59-.57,1.05-.4,1.39.5,0,.29-.21.54-.7.76a3.27,3.27,0,0,0-.61.28c-.13.16-.14.27,0,.33a2.6,2.6,0,0,0,1-.05,1.83,1.83,0,0,1,1.32.19c.44.42.35.76-.28,1a36.68,36.68,0,0,0-6.42,1.47A4,4,0,0,1,88,22.1a1.84,1.84,0,0,1-1-.55c-.21-.23-.1-.48.35-.75l2.4-.47a.45.45,0,0,0,.44-.21c0-.07-.14-.25-.42-.56a.89.89,0,0,1-.2-.86c.28-.55.67-.58,1.16-.11a1.74,1.74,0,0,1,.39.67c0,.54.27.74.74.61l.8-.19A.92.92,0,0,0,93,19.4,8.28,8.28,0,0,1,94.46,17.39Zm-2.6,5.05a5.32,5.32,0,0,1,3.57-.22,1.28,1.28,0,0,1,.82.69,4.22,4.22,0,0,1-.86,2.54.91.91,0,0,0,.4.63c.24.39,0,.69-.56.9a7.89,7.89,0,0,0-3.43.09.71.71,0,0,0-.64.43c-.27.3-.59.14-1-.48A8.37,8.37,0,0,1,89,23.68c-.09-.83.27-1.16,1.08-1A4.78,4.78,0,0,0,91.86,22.44Zm-.5-8.36a2.42,2.42,0,0,1,1.62.17,1.74,1.74,0,0,1,.86.6c.16.3.44.36.83.19a1,1,0,0,1,1,.25c.68.55.65.92-.1,1.08a23.26,23.26,0,0,1-4.82,1.11,1.3,1.3,0,0,1-1.48-.72c-.33-.42-.21-.63.38-.64a14.68,14.68,0,0,0,1.61-.18.66.66,0,0,0,.74-.49c.06-.15-.06-.33-.36-.52C91.09,14.67,91,14.38,91.36,14.08Zm2.74,9.26c-.06-.09-.29-.09-.68,0a10.64,10.64,0,0,0-2.18.66.55.55,0,0,0-.3.65l.14.67c-.06.26.1.44.48.53a3.94,3.94,0,0,0,1.2-.15,1.5,1.5,0,0,0,1-.85A3.11,3.11,0,0,0,94.1,23.34Zm8.07-8.12c.56-.56,1-.49,1.44.2.24.63,0,1.2-.78,1.7-.43.45-.84.9-1.23,1.34-.24.29-.12.52.35.69a4.67,4.67,0,0,1,1.38,1,2.76,2.76,0,0,1,.54,2.89,2.7,2.7,0,0,1-1.9,1.63.69.69,0,0,1-1.09-.15c0-.4-.37-.73-1-1-.24,0-.35.13-.32.4a11.39,11.39,0,0,1-.88,4c-.3.35-.47.51-.53.49a3.85,3.85,0,0,1-.36-1.36q-.09-5.38.06-10.54a3.73,3.73,0,0,1,.1-.92c.26-.54.73-.65,1.41-.34a1.72,1.72,0,0,0,.86.1c.51,0,1,0,1.52,0A1.7,1.7,0,0,0,102.17,15.22Zm-.49.77a1.27,1.27,0,0,0-1,.15,1.91,1.91,0,0,0-1,.88,4.82,4.82,0,0,0-.22,1.17l.2,4.77a.9.9,0,0,0,1,.33,1.19,1.19,0,0,0,1.63-1.2,3.92,3.92,0,0,0-.89-2.74.36.36,0,0,0-.42-.07,1.47,1.47,0,0,1-.6.32c-.16,0-.21-.09-.14-.32a17.8,17.8,0,0,1,1.36-2.82C101.67,16.19,101.71,16,101.68,16Z"/><path class="cls-7" d="M113.88,13.85c.35-.76.84-.89,1.47-.4.4.42.78.58,1.14.47a2.18,2.18,0,0,1,2,.41c.21.24.26.43.16.59a4,4,0,0,1-2.07.58.77.77,0,0,0-.94.57c0,.36.24.48.68.35a1.42,1.42,0,0,1,1.06.12c.34.14.4.33.2.57s-.37.33-.8.4l-.8.18a.53.53,0,0,0-.58.45c0,.15,0,.28.2.39a5.14,5.14,0,0,0,1.52-.09c1.43-.11,2.73-.17,3.89-.2a1.31,1.31,0,0,1,1.61,1.16c0,.22-.27.33-.68.33-1.17,0-2.52-.06-4.06-.05a30.29,30.29,0,0,0-9,1.59,1.59,1.59,0,0,1-1.2-.15q-.77-.57-.24-1a2,2,0,0,1,1.16-.55c1.79-.31,3.4-.55,4.81-.72.26-.06.38-.19.36-.38s-.31-.45-.82-.34a4.3,4.3,0,0,1-1.2,0c-.44-.14-.51-.35-.2-.62a2.57,2.57,0,0,1,1.14-.42c.63,0,1-.21,1.08-.55a.35.35,0,0,0-.3-.47c-.43.06-.86.14-1.3.24-.27.14-.67.07-1.2-.24-.75-.56-.75-.93,0-1.1s1.6-.35,2.4-.5A.76.76,0,0,0,113.88,13.85Zm2.67,6.62a1.49,1.49,0,0,1,1.63.87,4.82,4.82,0,0,1,.64,2.84c0,.81.05,1.65,0,2.5a3.11,3.11,0,0,1-.16.67c-.07.36-.37.65-.91.87l-.8.49c-.84.45-1.36.29-1.56-.49a.91.91,0,0,0-.42-.68c-.26-.23-.2-.29.18-.2a1.06,1.06,0,0,0,1.34-.79,16,16,0,0,0-.12-4.16c-.09-.74-.45-1-1.06-.85s-1,.26-1.57.41-1,.37-1.08.79c.07.37.33.45.78.25a4.73,4.73,0,0,1,1.21-.25,2.6,2.6,0,0,1,.88.2c.09.36-.14.6-.68.74a10.2,10.2,0,0,1-1.61.3c-.6.07-.83.31-.68.71s.22.37.46.32c.44-.1.9-.18,1.39-.25a1.07,1.07,0,0,1,1.28.47c.11.14.06.27-.14.38a2.15,2.15,0,0,1-.92.15,9.78,9.78,0,0,0-1.61.26.58.58,0,0,0-.44.28,3.46,3.46,0,0,1-.34,1.27,2.05,2.05,0,0,1-.5.67c-.15.05-.32,0-.5-.24a3.19,3.19,0,0,1-.46-1.62,12.57,12.57,0,0,1,0-1.47,13.53,13.53,0,0,1,.4-2.67A2.24,2.24,0,0,1,112,21a2.62,2.62,0,0,1,.72.09l3-.32A6.76,6.76,0,0,1,116.55,20.47Z"/><path class="cls-7" d="M130.8,13.65a1,1,0,0,1,1.46.3.81.81,0,0,0,.44.53,2.16,2.16,0,0,0,.9-.05l1.61-.26a7.37,7.37,0,0,1,1.8-.25c1,0,1.35.4,1.15,1.13a1,1,0,0,1-.66.54,10.71,10.71,0,0,1-1.21.23c-.67,0-.88.31-.64.94.13.24.4.31.8.2a1.61,1.61,0,0,1,1.23.41c.44.58.16,1.06-.85,1.43a2.09,2.09,0,0,0-1.26.46,4.27,4.27,0,0,0,0,1.07c-.07.64.22.87.86.7,1.19-.16,2.33-.28,3.41-.35a2.2,2.2,0,0,1,.8.17,1.34,1.34,0,0,1,.95,1.3,1,1,0,0,1-1,.36c-1.2,0-2.54.15-4,.3-.73,0-1,.27-.9.82a5.56,5.56,0,0,1-.68,3.74,6.39,6.39,0,0,0-.62.67q-.47.67-.69.15a4.74,4.74,0,0,1-.18-1.41l-.12-3.27a.66.66,0,0,0-.68-.1l-3.21.58a7,7,0,0,1-2.4.37,1.4,1.4,0,0,1-1.39-1.24.62.62,0,0,1,.38-.61,15.4,15.4,0,0,1,2.73-.56c.63,0,.78-.24.46-.75s-.26-1,.14-1.23a1.55,1.55,0,0,1,1.27.31,2.18,2.18,0,0,1,.24.67c.13.61.48.83,1.06.65l.56-.08c.74,0,1-.31.86-.87v-.5a.69.69,0,0,0-.18-.57,2.13,2.13,0,0,0-.88-.08,2.54,2.54,0,0,1-.8-.19q-.57-.16-.54-.51a2.2,2.2,0,0,1,1.78-1.14c.51-.15.7-.4.58-.75q.06-.81-.84-.54a1.87,1.87,0,0,1-1.36-.48,2.67,2.67,0,0,0-1.31.67,6.53,6.53,0,0,1-1.2.58,2.54,2.54,0,0,1-.72.15s0-.22.14-.55A8.1,8.1,0,0,1,130.8,13.65Z"/><path class="cls-7" d="M150.08,14.07a.91.91,0,0,1,1,0c.41.27.51.6.28,1a8.74,8.74,0,0,1-1.51,2.6,1.26,1.26,0,0,0-.24.49,2.22,2.22,0,0,0,.71.15c.62.25.86.6.7,1a1.66,1.66,0,0,1-.72.82c-.5.27-.57.54-.2.82.22.3.1.54-.37.72-1.17.64-1.84,1.25-2,1.84.07.19.27.22.62.1a2.2,2.2,0,0,0,.8-.44c.67-.49,1.16-.46,1.47.07a4.29,4.29,0,0,1-.06,2.79,2.21,2.21,0,0,1-1.79,1.59,3.68,3.68,0,0,0-.8.42,1.5,1.5,0,0,1-.8.2c-.39-.09-.54-.27-.44-.54s-.06-.29-.28-.5-.25-.38.24-.38a2,2,0,0,0,2.54-1.72c.07-.44,0-.73-.26-.89a2.83,2.83,0,0,0-1.52.52,1,1,0,0,1-1.21-.17c-.17-.13-.18-.36,0-.67l.51-1.27a1.17,1.17,0,0,1,.56-1c1.08-.5,1.72-1.05,1.9-1.62,0-.28-.12-.33-.5-.16a2.7,2.7,0,0,1-.6.11q-.35,0-.66.51a9.6,9.6,0,0,1-3.09,2.63c-.43.18-.54.1-.34-.24a41.6,41.6,0,0,1,2.63-3.31,1.74,1.74,0,0,0,.5-.8c0-.19-.16-.35-.42-.5a7.27,7.27,0,0,0-.81-.37,1.51,1.51,0,0,1-.7-.38c-.09-.22.06-.44.44-.65a2.39,2.39,0,0,1,1.79.05c.56.38,1,.31,1.22-.19.1-.18.21-.36.34-.55a.71.71,0,0,0,.18-.75c-.21-.21-.56-.17-1,.12a.8.8,0,0,1-.7,0c-.34-.2-.45-.42-.34-.67a1,1,0,0,1,1-.47h.78A2.24,2.24,0,0,0,150.08,14.07Zm5.77,8c.62-.23,1,0,1.14.79a14.41,14.41,0,0,1-.78,2,1.84,1.84,0,0,0-.32.75c0,.1.06.22.22.37a22.66,22.66,0,0,0,3.07,1.3,6.13,6.13,0,0,1,.8.33c.55.29.6.42.16.39a3.91,3.91,0,0,0-1.46.25,6,6,0,0,1-3.89-1.31,1,1,0,0,0-.8,0,10,10,0,0,1-2.41.51c-.4,0-.4-.07,0-.31a6.88,6.88,0,0,0,1.6-.65q.69-.23,0-.93a3.36,3.36,0,0,0-1.66-.84c-.25-.2-.19-.44.2-.73.09-.14.3-.15.62-.05a5.4,5.4,0,0,1,1.45.75c.45.3.75.29.9,0a4.32,4.32,0,0,0,.46-1.35c-.07-.25-.29-.31-.68-.2a4.55,4.55,0,0,0-.8.23,1.76,1.76,0,0,1-.91.19.36.36,0,0,1-.22-.47,1.06,1.06,0,0,1,.6-.55,7.35,7.35,0,0,1,1.51-.24A2.06,2.06,0,0,0,155.85,22.05ZM158,15.32a1,1,0,0,1,1.3.53q0,.24-.36.36a8.71,8.71,0,0,1-2,.68c-.56.15-.64.36-.24.64,1.23.59,2.25,1.11,3.05,1.57A12.27,12.27,0,0,1,162,20.57c.09.16,0,.26-.16.3a3.45,3.45,0,0,1-.76-.1,2.31,2.31,0,0,0-.81,0,4.69,4.69,0,0,1-3.21-.92,4.19,4.19,0,0,0-.66-.4,1,1,0,0,0-.64,1c.2.25.52.21.94-.12a.46.46,0,0,1,.5.17c.27.19.22.38-.16.59a3.33,3.33,0,0,1-2.4.6.46.46,0,0,1-.22-.64l.44-1.34c-.14-.64-.56-.72-1.27-.25a2.12,2.12,0,0,0-.54.66c-.08.44-.14.89-.18,1.33a1.35,1.35,0,0,1-1,1.26c-.11,0-.17-.22-.18-.59-.05-.82-.09-1.65-.1-2.47a1.75,1.75,0,0,1,.28-.67c.4-.41.64-.62.72-.62a6.36,6.36,0,0,1,.74.2,4.89,4.89,0,0,0,1.13-.28c.21-.2.14-.45-.22-.74a4.13,4.13,0,0,0-1.57-1c-.6-.1-.87-.36-.82-.77,0-.11.11-.22.3-.32a2.77,2.77,0,0,1,2.33.53,5.53,5.53,0,0,1,.76.56c.45.24.89.11,1.3-.41A4.44,4.44,0,0,1,158,15.32Zm-2-1.4a.78.78,0,0,1,1.25.28c.09.22.12.37.08.45a1.92,1.92,0,0,1-.91.3,9.81,9.81,0,0,0-1.46.32c-.44.06-.51-.06-.2-.34S155.62,14.24,156,13.92Z"/><path class="cls-7" d="M169.39,13.87a24.52,24.52,0,0,1,4.16.05,13.52,13.52,0,0,0,1.8,0c.54.12.83.37.88.76s-.16,1-.84,1.44a1.11,1.11,0,0,0-.16.3c0,.28-.27.49-.68.64s-.36.32,0,.53a1.4,1.4,0,0,0,1.08.35,1.46,1.46,0,0,1,1.13.69c.17.49-.13.85-.91,1.07a1.58,1.58,0,0,0-1.26.72c-.31.56-.1.78.62.65a6.74,6.74,0,0,1,3,0,1,1,0,0,1,.72.85c.09.26-.05.45-.42.55a11.43,11.43,0,0,0-1.85,0c-.21.05-.28.16-.22.32s-.1.31-.44.4a6.54,6.54,0,0,0-1.6.85c-.19.14-.24.29-.16.43a5.87,5.87,0,0,0,1.42.91,27.37,27.37,0,0,0,3.21,1.42,7,7,0,0,1,1.61.7c.34.26.29.39-.17.42a4.56,4.56,0,0,0-1.6.33,3,3,0,0,1-1.6-.13,10.34,10.34,0,0,1-3.21-1.44c-.56-.56-1.1-.67-1.61-.33a14,14,0,0,1-3.21,1.82,1.8,1.8,0,0,1-1.36.06,1.66,1.66,0,0,1-.52-.5c-.39-.42-.26-.67.38-.73s1.08-.36.86-.94l0-2c-.08-.13-.32-.13-.72,0a1.15,1.15,0,0,1-1.16-.28c-.39-.2-.7,0-.93.55-.54.79-1.2,1.65-2,2.57-.32.36-.48.35-.48,0a49.25,49.25,0,0,1,3-6.68,16,16,0,0,0,1.54-4,1.62,1.62,0,0,1,.38-1.07q-.3-.48-.18-.69A3,3,0,0,1,169.39,13.87Zm.49,4.24a1.42,1.42,0,0,1-.81-.12,1.14,1.14,0,0,0-.48.74A34.93,34.93,0,0,1,167,22.07a1.34,1.34,0,0,0-.14.42c0,.24.27.25.78,0s1.2-.34,1.8-.47.81-.31.69-.67a.53.53,0,0,0-.44-.27,2.43,2.43,0,0,1-.79-.42q-.79-.75.42-1.08l.41-.05a.72.72,0,0,0,.62-.5,2.47,2.47,0,0,1,.3-.77C170.57,18,170.33,18,169.88,18.11Zm.64,5.88c-.32-.33-.59-.49-.8-.46a.43.43,0,0,0-.37.33,4.46,4.46,0,0,0-.08,2,.76.76,0,0,0,.23.58,1.27,1.27,0,0,0,.5.05,10,10,0,0,0,2.1-.77c.19-.22,0-.49-.46-.8Zm3.15-9.51a16.39,16.39,0,0,0-2.35.62,6.22,6.22,0,0,1-1.46.24c-.51,0-.65.14-.4.48a.68.68,0,0,1,.14.9.3.3,0,0,0,.08.17,2.12,2.12,0,0,0,1.12-.1c.8-.16,1.6-.34,2.41-.55a1.17,1.17,0,0,0,.76-.4c.43-.56.57-1,.42-1.27Q174.27,14.45,173.67,14.48Zm-.61,5.95c-.18-.13-.5-.09-.94.14-.61.13-.8.42-.56.87a.66.66,0,0,0,.7,0A.92.92,0,0,0,173.06,20.43Zm-.16-3a6.49,6.49,0,0,0-.74.2q-.48.13-.3.42a1.09,1.09,0,0,1,0,.48c-.07.46.19.59.76.39a.69.69,0,0,0,.67-.47,1.92,1.92,0,0,1,.26-.67.3.3,0,0,0,0-.4A2.51,2.51,0,0,0,172.9,17.41Zm1.25,5.1a12.69,12.69,0,0,0-1.73.18,1.43,1.43,0,0,0-.58.2c0,.14.06.29.28.43a5.7,5.7,0,0,0,.8.52.77.77,0,0,0,1.23-.25c.44-.43.67-.76.68-1S174.51,22.43,174.15,22.51Z"/><path class="cls-7" d="M193.31,13.73a8.12,8.12,0,0,1,1.6.09,2.4,2.4,0,0,0,.8-.12.85.85,0,0,1,.95.65A2.85,2.85,0,0,1,195.51,17a3,3,0,0,1-1.58.87c-.4,0-.65,0-.74-.16-.08-.33-.37-.42-.87-.29l-.56.09q-1,0-.48.6c.09.48.43.62,1,.43a5.37,5.37,0,0,1,.81,0c.45,0,.69.21.72.49s.24.27.52.08a2.17,2.17,0,0,1,2-.57c.46.22.55.49.27.8a1.88,1.88,0,0,1-.55.34c-.26.11-.53.24-.8.38a1.57,1.57,0,0,0-.94.75c0,.09.25.13.68.12l1.4-.07a1.4,1.4,0,0,1,1.61.64.75.75,0,0,1,.08.43c-.12.22-.42.28-.9.19q-2.33,0-4.74,0c-.36,0-.9.27-1.62.94,0,.2.21.26.68.2a8.84,8.84,0,0,0,1.35-.1,1.47,1.47,0,0,1,2,.47,2.09,2.09,0,0,1,.56,1.33,8,8,0,0,1,.08,2.28,1.42,1.42,0,0,1-.88.83.82.82,0,0,1-1.36.1,1.43,1.43,0,0,0-1.39-.28l-1.6.13a1.94,1.94,0,0,0-.74.44.7.7,0,0,1-.71.1,1.71,1.71,0,0,1-.88-1.36,11.92,11.92,0,0,1,0-1.34c0-.33,0-.51-.08-.55a2.35,2.35,0,0,0-.92.5c-.55.41-1.1.82-1.65,1.26a2.92,2.92,0,0,1-1.16.72c-.45.17-.55.06-.3-.34a26,26,0,0,1,5.11-4.63q.27-.3-.12-.33a1.48,1.48,0,0,0-.42,0c-1,.13-2.06.3-3.11.51h-.56a.75.75,0,0,1-.76-.33c-.24-.2-.21-.42.08-.67a1.18,1.18,0,0,1,.78-.28c1-.16,2.25-.29,3.61-.4.71,0,.92-.34.62-.94-.13-.12-.42-.15-.88-.08a5.92,5.92,0,0,1-1.46,0c-.56-.32-.72-.64-.48-1a1.08,1.08,0,0,1,.88-.23l1.6-.1q.57-.11.51-.54c.16-.24.05-.42-.33-.53-.4.05-.68-.15-.86-.62a.47.47,0,0,1,.5-.39c.44-.06.57-.29.38-.66a1.51,1.51,0,0,1-.12-.67c-.16-.29-.52-.36-1.1-.2-.44,0-.66.14-.66.51s.24.91.4,1.39.15.59.1.67q-.47.43-1.08-.18a7.06,7.06,0,0,1-1.23-2.54,1.06,1.06,0,0,1,.06-.84.67.67,0,0,1,.53-.32,1.61,1.61,0,0,1,.8.17,1.18,1.18,0,0,0,.4.1Q190.4,13.9,193.31,13.73Zm-2.93,1.34c-.64,0-.88.22-.7.63a2.65,2.65,0,0,1,.1.67.4.4,0,0,0,.54.35.62.62,0,0,0,.62-.38,1.9,1.9,0,0,1,.2-.47,1.45,1.45,0,0,0,.32-.77,1.39,1.39,0,0,0-.7-.08Zm2.41,8.76-1.11.11a4.59,4.59,0,0,0-1.72.44.6.6,0,0,0-.24.4c-.06.18,0,.29.24.35l.9-.15a2.81,2.81,0,0,1,1.26,0c.28.15.4.27.36.37a.65.65,0,0,1-.48.37,7.47,7.47,0,0,1-1.58.21c-.63.05-.88.27-.74.67,0,.47.24.65.8.54l2-.2c.5-.06.75-.29.77-.7a10,10,0,0,0-.1-2A.57.57,0,0,0,192.79,23.83ZM192,20c-.88,0-1.22.35-1,1,.17.15.41.12.7-.08l.66-.45c.3-.26.43-.41.4-.45S192.39,19.89,192,20Zm3-5.3c-.07-.27-.35-.29-.84-.07a1.07,1.07,0,0,1-.4.12c-.51,0-.8.16-.88.42s-.19.46-.57.73-.38.39-.38.44.26.07.66.05l1.23-.21a1,1,0,0,0,.58-.2A2.51,2.51,0,0,0,195,14.67Z"/><path class="cls-7" d="M51.79,32.09a.14.14,0,0,1,0,.1l-.13.06-.13.06a.21.21,0,0,0-.1.11l-.85,1.92a.41.41,0,0,0-.06.23v1.64a.16.16,0,0,0,.05.11l.12.07.12.06a.12.12,0,0,1,.06.1c0,.07,0,.11-.12.11h-.92a.1.1,0,0,1-.11-.11.14.14,0,0,1,0-.1l.12-.06.12-.07a.14.14,0,0,0,0-.11V34.57a.6.6,0,0,0-.06-.24L49,32.42a.22.22,0,0,0-.09-.1l-.14-.07-.12-.06a.14.14,0,0,1,0-.1c0-.07,0-.11.12-.11h1c.08,0,.12,0,.12.11a.09.09,0,0,1,0,.08l-.13.06-.09,0a.07.07,0,0,0,0,.07.19.19,0,0,0,0,.07l.7,1.53s0,.06.06.06,0,0,0-.06L51,32.4a.1.1,0,0,0,0-.07,0,0,0,0,0,0,0l-.09,0a.24.24,0,0,1-.13-.08.12.12,0,0,1,0-.09.1.1,0,0,1,.11-.11h.8C51.75,32,51.79,32,51.79,32.09Z"/><path class="cls-7" d="M53.59,35a2.58,2.58,0,0,1-.09.7,1.67,1.67,0,0,1-.24.54,1.11,1.11,0,0,1-.39.36,1.07,1.07,0,0,1-.51.13,1,1,0,0,1-.5-.13,1.18,1.18,0,0,1-.39-.35,1.49,1.49,0,0,1-.25-.54,2.65,2.65,0,0,1-.09-.71,2.69,2.69,0,0,1,.19-1.07,1.19,1.19,0,0,1,.55-.61,1.14,1.14,0,0,1,.49-.12,1,1,0,0,1,.49.12,1.11,1.11,0,0,1,.39.36,1.71,1.71,0,0,1,.26.56A3,3,0,0,1,53.59,35Zm-.47,0a3.7,3.7,0,0,0,0-.6,1.86,1.86,0,0,0-.14-.47.93.93,0,0,0-.23-.31.58.58,0,0,0-.34-.11.53.53,0,0,0-.32.1.79.79,0,0,0-.34.5,3.1,3.1,0,0,0-.11.86,4.07,4.07,0,0,0,0,.52,1.55,1.55,0,0,0,.14.43.85.85,0,0,0,.23.29.59.59,0,0,0,.67,0,.73.73,0,0,0,.25-.27,1.59,1.59,0,0,0,.14-.42A2.22,2.22,0,0,0,53.12,35Z"/><path class="cls-7" d="M57.08,36.45a.14.14,0,0,1-.06.1.49.49,0,0,1-.13.08l-.15,0a.3.3,0,0,1-.12,0h-.2c-.1,0-.15-.06-.15-.17v-.34a1.27,1.27,0,0,1-.88.48.68.68,0,0,1-.62-.32,1.45,1.45,0,0,1-.22-.85V33.7c0-.05,0-.08,0-.1l-.12,0-.12,0s0,0,0-.09a.11.11,0,0,1,0-.09.36.36,0,0,1,.12-.08l.17,0,.17,0h.17c.08,0,.12.05.12.13v2.14a.9.9,0,0,0,0,.28.93.93,0,0,0,.1.25.77.77,0,0,0,.18.18.41.41,0,0,0,.23.06,1.21,1.21,0,0,0,.71-.36V33.7c0-.05,0-.08-.05-.1l-.12,0-.12,0s0,0,0-.09,0-.12.16-.17a1.44,1.44,0,0,1,.53-.07c.07,0,.11.05.11.13v2.86a.12.12,0,0,0,.05.11l.12,0,.12,0S57.08,36.41,57.08,36.45Z"/><path class="cls-7" d="M59.35,36.35a.19.19,0,0,1-.08.14.42.42,0,0,1-.17.11l-.2.06-.17,0a.65.65,0,0,1-.56-.27,1.44,1.44,0,0,1-.2-.85V33.63a.07.07,0,0,0,0-.07h-.17q-.12,0-.12-.18a.23.23,0,0,1,0-.13.09.09,0,0,1,.09,0h.11c.08,0,.11,0,.11-.13v-.56s0-.09,0-.15a1.16,1.16,0,0,1,0-.18.38.38,0,0,1,.09-.15.16.16,0,0,1,.15-.07h.05c.08,0,.12.05.12.14v1c0,.05,0,.07.06.07H59c.07,0,.11.06.11.18s0,.17-.11.17h-.46s-.06,0-.06.07v1.92a1.15,1.15,0,0,0,.12.63.43.43,0,0,0,.36.15.55.55,0,0,0,.32-.1h0S59.35,36.27,59.35,36.35Z"/><path class="cls-7" d="M62.71,36.55c0,.07,0,.11-.12.11h-.91c-.08,0-.12,0-.12-.11a.12.12,0,0,1,.06-.1l.12-.06.12-.07a.14.14,0,0,0,0-.11V34.34a.86.86,0,0,0,0-.28.66.66,0,0,0-.13-.25.67.67,0,0,0-.2-.17.6.6,0,0,0-.27-.06,1.23,1.23,0,0,0-.62.21v2.42a.13.13,0,0,0,.05.11l.12.07.12.06a.14.14,0,0,1,.05.1.1.1,0,0,1-.11.11H60a.1.1,0,0,1-.11-.11.11.11,0,0,1,0-.1l.12-.06.12-.07a.13.13,0,0,0,0-.11V32.12c0-.06,0-.09,0-.1A.27.27,0,0,0,60,32l-.12,0s0,0,0-.08a.11.11,0,0,1,0-.1A.74.74,0,0,1,60,31.7l.14-.05h.36c.08,0,.12,0,.12.14v1.74a1.24,1.24,0,0,1,.8-.34.81.81,0,0,1,.69.31,1.39,1.39,0,0,1,.23.85v1.87a.14.14,0,0,0,.06.11l.12.07.12.06A.14.14,0,0,1,62.71,36.55Z"/><path class="cls-7" d="M67.94,34.32c0,1.56-.53,2.34-1.6,2.34H65a.1.1,0,0,1-.11-.11.14.14,0,0,1,0-.1l.12-.06.12-.07a.13.13,0,0,0,0-.11V32.43a.16.16,0,0,0,0-.11l-.12-.07L65,32.19a.14.14,0,0,1,0-.1c0-.07,0-.11.12-.11h1.31C67.41,32,67.94,32.76,67.94,34.32Zm-.48,0a3,3,0,0,0-.3-1.5.9.9,0,0,0-.82-.49h-.51a.11.11,0,0,0-.12.12v3.72c0,.1,0,.14.13.14h.5a.92.92,0,0,0,.83-.49A3.11,3.11,0,0,0,67.46,34.32Z"/><path class="cls-7" d="M70.82,34.88c0,.07,0,.11-.09.11H69.05a2.38,2.38,0,0,0,.06.55,1.37,1.37,0,0,0,.16.43.81.81,0,0,0,.27.28.59.59,0,0,0,.34.1,1.42,1.42,0,0,0,.63-.17c.07,0,.11,0,.11.09a.21.21,0,0,1-.09.16,1.24,1.24,0,0,1-.23.12l-.27.08-.2,0a1,1,0,0,1-.52-.13,1.06,1.06,0,0,1-.4-.36,1.92,1.92,0,0,1-.26-.56,2.65,2.65,0,0,1-.09-.71,2.5,2.5,0,0,1,.09-.69,2.21,2.21,0,0,1,.25-.56,1.37,1.37,0,0,1,.39-.37,1.06,1.06,0,0,1,.5-.13.83.83,0,0,1,.77.45A2.52,2.52,0,0,1,70.82,34.88Zm-.41-.31a2,2,0,0,0-.18-.85.55.55,0,0,0-.5-.26.48.48,0,0,0-.46.3,2.51,2.51,0,0,0-.2.81c0,.1,0,.14.12.14H70.3C70.38,34.71,70.42,34.67,70.41,34.57Z"/><path class="cls-7" d="M74.07,33.32a.14.14,0,0,1,0,.1l-.12.07-.14.09a.23.23,0,0,0-.09.14l-.86,2.94h-.17l-.92-2.94a.3.3,0,0,0-.1-.14.51.51,0,0,0-.13-.09l-.12-.07a.11.11,0,0,1-.05-.1c0-.07,0-.1.11-.1h.92c.07,0,.11,0,.11.1a.11.11,0,0,1,0,.09l-.1.06a.41.41,0,0,0-.11.07.1.1,0,0,0,0,.08h0v.05l.61,2c0,.05,0,.07,0,.07s0,0,0-.07l.55-2a.1.1,0,0,0,0,0,.14.14,0,0,0,0-.09l-.11-.06-.11-.07a.11.11,0,0,1,0-.09c0-.07.08-.1.12-.1H74A.1.1,0,0,1,74.07,33.32Z"/><path class="cls-7" d="M76.74,34.88c0,.07,0,.11-.09.11H75a2.38,2.38,0,0,0,.06.55,1.37,1.37,0,0,0,.16.43.81.81,0,0,0,.27.28.6.6,0,0,0,.35.1,1.38,1.38,0,0,0,.62-.17c.08,0,.11,0,.11.09a.21.21,0,0,1-.09.16,1.24,1.24,0,0,1-.23.12l-.27.08-.2,0a1,1,0,0,1-.52-.13,1.06,1.06,0,0,1-.4-.36,1.92,1.92,0,0,1-.26-.56,2.65,2.65,0,0,1-.09-.71,2.5,2.5,0,0,1,.09-.69,2.21,2.21,0,0,1,.25-.56,1.37,1.37,0,0,1,.39-.37,1.06,1.06,0,0,1,.5-.13.86.86,0,0,1,.78.45A2.64,2.64,0,0,1,76.74,34.88Zm-.41-.31a2,2,0,0,0-.18-.85.55.55,0,0,0-.5-.26.48.48,0,0,0-.46.3,2.3,2.3,0,0,0-.19.81c0,.1,0,.14.11.14h1.11C76.3,34.71,76.34,34.67,76.33,34.57Z"/><path class="cls-7" d="M78,36.55a.1.1,0,0,1-.11.11H77a.1.1,0,0,1-.11-.11.11.11,0,0,1,0-.1l.12-.06.12-.07a.13.13,0,0,0,0-.11V32.12c0-.06,0-.09,0-.1a.27.27,0,0,0-.12,0L77,32s0,0,0-.08a.11.11,0,0,1,0-.1.74.74,0,0,1,.13-.08l.14-.05h.36c.08,0,.12,0,.12.14v4.43a.13.13,0,0,0,0,.11l.12.07.12.06A.14.14,0,0,1,78,36.55Z"/><path class="cls-7" d="M81.06,35a2.58,2.58,0,0,1-.09.7,1.67,1.67,0,0,1-.24.54,1.11,1.11,0,0,1-.39.36,1.07,1.07,0,0,1-.51.13,1,1,0,0,1-.5-.13,1.18,1.18,0,0,1-.39-.35,1.49,1.49,0,0,1-.25-.54A2.65,2.65,0,0,1,78.6,35a2.69,2.69,0,0,1,.19-1.07,1.23,1.23,0,0,1,.55-.61,1.14,1.14,0,0,1,.49-.12,1,1,0,0,1,.49.12,1.11,1.11,0,0,1,.39.36,1.71,1.71,0,0,1,.26.56A3,3,0,0,1,81.06,35Zm-.47,0a3.7,3.7,0,0,0,0-.6,1.86,1.86,0,0,0-.14-.47.93.93,0,0,0-.23-.31.58.58,0,0,0-.34-.11.53.53,0,0,0-.32.1.79.79,0,0,0-.34.5,3.1,3.1,0,0,0-.11.86,4.07,4.07,0,0,0,0,.52,1.55,1.55,0,0,0,.14.43.85.85,0,0,0,.23.29.58.58,0,0,0,.35.11.64.64,0,0,0,.33-.1A.8.8,0,0,0,80.4,36a1.59,1.59,0,0,0,.14-.42A2.22,2.22,0,0,0,80.59,35Z"/><path class="cls-7" d="M84.3,34.86a3.29,3.29,0,0,1-.08.71,2.13,2.13,0,0,1-.24.57,1.14,1.14,0,0,1-.36.39.83.83,0,0,1-.46.14.77.77,0,0,1-.32-.07,1.39,1.39,0,0,1-.36-.25v1.24a.16.16,0,0,0,0,.11l.12.07.12.06a.14.14,0,0,1,0,.1.1.1,0,0,1-.11.11H81.8c-.08,0-.12,0-.12-.11a.14.14,0,0,1,0-.1l.12-.06L82,37.7a.13.13,0,0,0,0-.11V33.7c0-.05,0-.08,0-.1l-.12,0-.12,0s0,0,0-.09a.14.14,0,0,1,0-.09l.12-.08.15-.05h.36c.08,0,.12,0,.12.13v.1a2.54,2.54,0,0,1,.39-.21,1,1,0,0,1,.36-.08.77.77,0,0,1,.45.14,1.35,1.35,0,0,1,.34.37,2.17,2.17,0,0,1,.21.54A2.7,2.7,0,0,1,84.3,34.86Zm-.42,0a2.65,2.65,0,0,0,0-.5,2.05,2.05,0,0,0-.15-.42.81.81,0,0,0-.23-.28.5.5,0,0,0-.3-.11.89.89,0,0,0-.31.06,2.68,2.68,0,0,0-.36.16V36a1.52,1.52,0,0,0,.34.25.77.77,0,0,0,.27.07.52.52,0,0,0,.34-.12,1,1,0,0,0,.24-.32,2.08,2.08,0,0,0,.16-.48A3.7,3.7,0,0,0,83.88,34.82Z"/><path class="cls-7" d="M89.32,36.55a.1.1,0,0,1-.11.11h-.92a.1.1,0,0,1-.11-.11.14.14,0,0,1,0-.1l.12-.06a.35.35,0,0,0,.12-.07.11.11,0,0,0,.06-.11V34.32a1.35,1.35,0,0,0,0-.28,1.15,1.15,0,0,0-.12-.25.77.77,0,0,0-.18-.18.49.49,0,0,0-.25-.07,1,1,0,0,0-.64.33.71.71,0,0,1,0,.21,1.93,1.93,0,0,1,0,.24v1.89a.16.16,0,0,0,.05.11l.12.07.12.06a.14.14,0,0,1,0,.1.1.1,0,0,1-.11.11h-.92a.1.1,0,0,1-.11-.11.14.14,0,0,1,0-.1l.12-.06.12-.07a.12.12,0,0,0,0-.11V34.32a1.22,1.22,0,0,0,0-.26,1.09,1.09,0,0,0-.1-.25.73.73,0,0,0-.17-.18.36.36,0,0,0-.22-.07.64.64,0,0,0-.3.09,2.11,2.11,0,0,0-.35.25v2.31a.16.16,0,0,0,0,.11l.12.07.12.06a.14.14,0,0,1,0,.1.1.1,0,0,1-.11.11H85a.1.1,0,0,1-.11-.11.11.11,0,0,1,0-.1l.12-.06.12-.07a.12.12,0,0,0,.05-.11V33.7c0-.05,0-.09-.05-.1l-.12,0-.12,0s0,0,0-.08a.11.11,0,0,1,0-.09.36.36,0,0,1,.12-.08l.15,0,.14,0h.22c.08,0,.12.05.12.13v.26a2,2,0,0,1,.41-.33.83.83,0,0,1,.41-.12.7.7,0,0,1,.4.12.83.83,0,0,1,.26.3,1.45,1.45,0,0,1,.91-.44.76.76,0,0,1,.65.32,1.48,1.48,0,0,1,.22.86v1.89s0,.09,0,.11a.35.35,0,0,0,.12.07l.12.06A.11.11,0,0,1,89.32,36.55Z"/><path class="cls-7" d="M91.79,34.88c0,.07,0,.11-.1.11H90a2.39,2.39,0,0,0,0,.55,1.38,1.38,0,0,0,.17.43.88.88,0,0,0,.26.28.6.6,0,0,0,.35.1,1.35,1.35,0,0,0,.62-.17q.12,0,.12.09a.19.19,0,0,1-.1.16,1,1,0,0,1-.23.12l-.26.08-.21,0a1,1,0,0,1-.52-.13,1.13,1.13,0,0,1-.4-.36,1.92,1.92,0,0,1-.26-.56,2.65,2.65,0,0,1-.09-.71,2.5,2.5,0,0,1,.09-.69,1.92,1.92,0,0,1,.26-.56,1.22,1.22,0,0,1,.38-.37,1.09,1.09,0,0,1,.5-.13.84.84,0,0,1,.78.45A2.63,2.63,0,0,1,91.79,34.88Zm-.41-.31a1.84,1.84,0,0,0-.19-.85.54.54,0,0,0-.5-.26.48.48,0,0,0-.46.3,2.3,2.3,0,0,0-.19.81c0,.1,0,.14.11.14h1.11C91.35,34.71,91.38,34.67,91.38,34.57Z"/><path class="cls-7" d="M95.26,36.55c0,.07,0,.11-.12.11h-.91c-.08,0-.12,0-.12-.11a.12.12,0,0,1,.06-.1l.12-.06.12-.07a.14.14,0,0,0,0-.11V34.32a1.22,1.22,0,0,0,0-.26.64.64,0,0,0-.1-.24.44.44,0,0,0-.16-.17.34.34,0,0,0-.22-.07.68.68,0,0,0-.33.11,2.78,2.78,0,0,0-.42.28v2.24a.16.16,0,0,0,0,.11l.12.07.12.06a.14.14,0,0,1,.05.1.1.1,0,0,1-.11.11h-.91c-.08,0-.12,0-.12-.11a.14.14,0,0,1,0-.1l.12-.06.12-.07a.12.12,0,0,0,0-.11V33.7c0-.05,0-.09,0-.1a.34.34,0,0,0-.12,0l-.12,0a.08.08,0,0,1,0-.08.11.11,0,0,1,0-.09.36.36,0,0,1,.12-.08l.15,0,.14,0h.22c.08,0,.12.05.12.13v.35a3.71,3.71,0,0,1,.47-.39.88.88,0,0,1,.45-.14.68.68,0,0,1,.6.32,1.59,1.59,0,0,1,.2.83v1.89a.14.14,0,0,0,.06.11l.12.07.12.06A.14.14,0,0,1,95.26,36.55Z"/><path class="cls-7" d="M97,36.35a.19.19,0,0,1-.08.14.5.5,0,0,1-.17.11l-.21.06-.16,0a.65.65,0,0,1-.56-.27,1.37,1.37,0,0,1-.2-.85V33.63a.07.07,0,0,0-.06-.07h-.17c-.07,0-.11-.06-.11-.18a.23.23,0,0,1,0-.13.08.08,0,0,1,.08,0h.12c.07,0,.11,0,.11-.13v-.56s0-.09,0-.15a1.16,1.16,0,0,1,0-.18.38.38,0,0,1,.09-.15.16.16,0,0,1,.15-.07h0c.08,0,.12.05.12.14v1c0,.05,0,.07,0,.07h.47c.07,0,.11.06.11.18s0,.17-.11.17h-.47s0,0,0,.07v1.92a1.15,1.15,0,0,0,.12.63.43.43,0,0,0,.36.15.55.55,0,0,0,.32-.1h0Q97,36.23,97,36.35Z"/><path class="cls-7" d="M102.6,36.55a.1.1,0,0,1-.11.11h-.91c-.08,0-.12,0-.12-.11a.08.08,0,0,1,.05-.08l.1-.07.11-.06a.1.1,0,0,0,0-.08s0,0,0,0l-.2-.81c0-.08-.07-.13-.14-.13h-1.28a.15.15,0,0,0-.17.13l-.19.8v0a0,0,0,0,1,0,0s0,0,0,.07l.11.06.1.06a.09.09,0,0,1,0,.09.1.1,0,0,1-.11.11h-.81a.1.1,0,0,1-.11-.11.11.11,0,0,1,0-.09l.12-.07.13-.07a.2.2,0,0,0,.08-.12l1.13-4.14a.16.16,0,0,1,.16-.14h.22c.07,0,.12,0,.15.13l1.14,4.16a.23.23,0,0,0,.2.17C102.54,36.43,102.6,36.49,102.6,36.55Zm-1.2-1.67h0v0s0,0,0,0l-.57-2.12s0-.07,0-.07,0,0,0,.07l-.6,2.12a.31.31,0,0,1,0,.07s0,.06.09.06h1.14S101.4,34.92,101.4,34.88Z"/><path class="cls-7" d="M105.66,36.54c0,.08,0,.12-.17.12a.54.54,0,0,1-.51-.28,2.14,2.14,0,0,1-.42.22,1.09,1.09,0,0,1-.39.08.74.74,0,0,1-.49-.16,1.23,1.23,0,0,1-.33-.39,1.78,1.78,0,0,1-.19-.5,2.24,2.24,0,0,1-.06-.48,3.25,3.25,0,0,1,.07-.67,2.69,2.69,0,0,1,.22-.64,1.46,1.46,0,0,1,.39-.49.93.93,0,0,1,.57-.19l.21,0,.24.05h0c.06,0,.08,0,.08-.11v-1a.11.11,0,0,0-.05-.1.2.2,0,0,0-.11,0l-.11,0a.1.1,0,0,1-.06-.08.21.21,0,0,1,.06-.1l.13-.08.15-.05h.35c.08,0,.12,0,.12.14v4.4a.2.2,0,0,0,0,.14.2.2,0,0,0,.09.07l.1.06A.09.09,0,0,1,105.66,36.54Zm-.73-2.78a.17.17,0,0,0-.09-.16.83.83,0,0,0-.4-.11.54.54,0,0,0-.32.11.93.93,0,0,0-.27.31,2.52,2.52,0,0,0-.18.49,3.24,3.24,0,0,0-.06.64,1.87,1.87,0,0,0,.2,1,.62.62,0,0,0,.53.33h.15l.2,0a.91.91,0,0,0,.17-.09.17.17,0,0,0,.07-.14Z"/><path class="cls-7" d="M110.63,36.55c0,.07,0,.11-.12.11h-.92a.1.1,0,0,1-.11-.11.12.12,0,0,1,.06-.1l.12-.06.12-.07a.13.13,0,0,0,0-.11V34.32a.9.9,0,0,0,0-.28.8.8,0,0,0-.11-.25.66.66,0,0,0-.19-.18.48.48,0,0,0-.24-.07,1,1,0,0,0-.64.33,1.3,1.3,0,0,1,0,.21c0,.08,0,.16,0,.24v1.89a.13.13,0,0,0,0,.11l.12.07.11.06a.12.12,0,0,1,.06.1.1.1,0,0,1-.11.11H108a.1.1,0,0,1-.11-.11.14.14,0,0,1,.05-.1l.13-.06.12-.07a.14.14,0,0,0,0-.11V34.32a.82.82,0,0,0,0-.26.77.77,0,0,0-.1-.25.58.58,0,0,0-.17-.18.34.34,0,0,0-.22-.07.64.64,0,0,0-.3.09,2.63,2.63,0,0,0-.35.25v2.31a.14.14,0,0,0,.06.11l.12.07.11.06a.12.12,0,0,1,.06.1c0,.07,0,.11-.12.11h-.91c-.08,0-.12,0-.12-.11a.14.14,0,0,1,0-.1l.12-.06.12-.07a.13.13,0,0,0,.06-.11V33.7a.09.09,0,0,0-.06-.1.34.34,0,0,0-.12,0l-.12,0a.08.08,0,0,1,0-.08.14.14,0,0,1,0-.09l.12-.08.16,0,.13,0h.23c.08,0,.11.05.11.13v.26a2,2,0,0,1,.42-.33.78.78,0,0,1,.41-.12.69.69,0,0,1,.39.12.77.77,0,0,1,.27.3,1.43,1.43,0,0,1,.9-.44.73.73,0,0,1,.65.32,1.48,1.48,0,0,1,.23.86v1.89a.13.13,0,0,0,0,.11l.12.07.12.06A.12.12,0,0,1,110.63,36.55Z"/><path class="cls-7" d="M112.33,36.55a.1.1,0,0,1-.11.11h-.92c-.08,0-.12,0-.12-.11a.14.14,0,0,1,.06-.12l.12-.09.12-.08a.17.17,0,0,0,0-.12V33.7a.1.1,0,0,0,0-.1l-.12,0-.12,0a.08.08,0,0,1-.06-.08.14.14,0,0,1,0-.09.57.57,0,0,1,.13-.08l.15,0,.14,0h.22c.08,0,.12.05.12.13v2.79a.17.17,0,0,0,.05.12l.12.09.12.09A.14.14,0,0,1,112.33,36.55Zm-.34-4a.24.24,0,0,1-.26.27c-.17,0-.25-.1-.26-.28a.24.24,0,0,1,.26-.27C111.9,32.26,112,32.35,112,32.54Z"/><path class="cls-7" d="M115.75,36.55c0,.07,0,.11-.12.11h-.91c-.08,0-.12,0-.12-.11a.12.12,0,0,1,.06-.1l.12-.06.12-.07a.14.14,0,0,0,0-.11V34.32a1.22,1.22,0,0,0,0-.26.64.64,0,0,0-.1-.24.44.44,0,0,0-.16-.17.34.34,0,0,0-.22-.07.74.74,0,0,0-.34.11,3.35,3.35,0,0,0-.41.28v2.24a.16.16,0,0,0,0,.11l.12.07.12.06a.14.14,0,0,1,0,.1.1.1,0,0,1-.11.11H113a.1.1,0,0,1-.11-.11.11.11,0,0,1,0-.1l.12-.06.12-.07a.14.14,0,0,0,0-.11V33.7a.1.1,0,0,0,0-.1l-.12,0-.12,0s0,0,0-.08a.11.11,0,0,1,0-.09.36.36,0,0,1,.12-.08l.15,0,.14,0h.22c.08,0,.12.05.12.13v.35a3.12,3.12,0,0,1,.47-.39.88.88,0,0,1,.45-.14.68.68,0,0,1,.6.32,1.59,1.59,0,0,1,.2.83v1.89a.14.14,0,0,0,.06.11l.12.07.12.06A.14.14,0,0,1,115.75,36.55Z"/><path class="cls-7" d="M117.45,36.55a.1.1,0,0,1-.11.11h-.92a.1.1,0,0,1-.11-.11.13.13,0,0,1,0-.12l.12-.09.12-.08a.13.13,0,0,0,.05-.12V33.7c0-.05,0-.09-.05-.1a.42.42,0,0,0-.12,0l-.12,0s0,0,0-.08a.11.11,0,0,1,0-.09.36.36,0,0,1,.12-.08l.15,0,.14,0H117c.08,0,.12.05.12.13v2.79a.17.17,0,0,0,0,.12l.12.09.12.09A.14.14,0,0,1,117.45,36.55Zm-.34-4a.24.24,0,0,1-.26.27c-.17,0-.25-.1-.26-.28a.24.24,0,0,1,.26-.27C117,32.26,117.11,32.35,117.11,32.54Z"/><path class="cls-7" d="M120,35.7a.93.93,0,0,1-.26.72,1.07,1.07,0,0,1-.76.24,1.67,1.67,0,0,1-.43,0,2,2,0,0,1-.47-.19L118,35.7c0-.08,0-.11.14-.11s.09,0,.11.1l.09.31a.51.51,0,0,0,.2.26.57.57,0,0,0,.36.11.64.64,0,0,0,.52-.2.72.72,0,0,0,.16-.49c0-.24-.25-.47-.74-.68a1.06,1.06,0,0,1-.74-1,.79.79,0,0,1,.25-.62,1,1,0,0,1,.7-.22,1.61,1.61,0,0,1,.37,0,1.44,1.44,0,0,1,.37.15l.12.72c0,.07,0,.11-.12.11a.13.13,0,0,1-.14-.1l-.08-.31a1,1,0,0,0-.19-.25.37.37,0,0,0-.28-.1.54.54,0,0,0-.42.15.52.52,0,0,0-.14.38c0,.28.25.53.75.74a1.35,1.35,0,0,1,.56.42A1,1,0,0,1,120,35.7Z"/><path class="cls-7" d="M122.37,36.35a.17.17,0,0,1-.07.14.62.62,0,0,1-.17.11l-.21.06-.16,0a.68.68,0,0,1-.57-.27,1.44,1.44,0,0,1-.2-.85V33.63s0-.06,0-.07h-.17q-.12,0-.12-.18a.23.23,0,0,1,0-.13.09.09,0,0,1,.09,0h.11c.08,0,.12,0,.12-.13v-.56a.86.86,0,0,1,0-.15,1.16,1.16,0,0,1,0-.18.53.53,0,0,1,.08-.15.18.18,0,0,1,.15-.07h.06c.08,0,.12.05.12.14v1c0,.05,0,.07.05.07H122q.12,0,.12.18c0,.11,0,.17-.12.17h-.46s-.06,0-.06.07v1.92a1.15,1.15,0,0,0,.12.63.43.43,0,0,0,.36.15.58.58,0,0,0,.33-.1h0C122.35,36.23,122.37,36.27,122.37,36.35Z"/><path class="cls-7" d="M124.83,34a.1.1,0,0,1,0,.08l-.06,0a.06.06,0,0,1-.07,0,1,1,0,0,0-.07-.16l-.13-.2a.3.3,0,0,0-.24-.11.43.43,0,0,0-.26.1,1.51,1.51,0,0,0-.29.28v2.24a.13.13,0,0,0,0,.11l.12.07.11.06a.12.12,0,0,1,.06.1.1.1,0,0,1-.11.11H123c-.08,0-.12,0-.12-.11a.12.12,0,0,1,.06-.1l.12-.06.12-.07a.14.14,0,0,0,0-.11V33.7a.1.1,0,0,0,0-.1l-.12,0-.12,0a.08.08,0,0,1-.06-.08.14.14,0,0,1,0-.09.57.57,0,0,1,.13-.08l.15,0,.14,0h.22c.08,0,.12.05.12.13v.35a1.6,1.6,0,0,1,.34-.38.63.63,0,0,1,.39-.13,1,1,0,0,1,.35.09l.06.69v0Z"/><path class="cls-7" d="M127.67,36.54q0,.12-.18.12a.61.61,0,0,1-.52-.24,1.48,1.48,0,0,1-.78.24.79.79,0,0,1-.64-.26,1,1,0,0,1-.22-.68,1.28,1.28,0,0,1,.09-.5.92.92,0,0,1,.29-.33,1.19,1.19,0,0,1,.44-.2,2.49,2.49,0,0,1,.57-.06h.09c.07,0,.11-.05.11-.14v-.25a1,1,0,0,0-.15-.58.49.49,0,0,0-.42-.2,1.79,1.79,0,0,0-.34,0,1.16,1.16,0,0,0-.32.08c-.08,0-.12,0-.12-.11a.18.18,0,0,1,.12-.16,1.25,1.25,0,0,1,.66-.14,1,1,0,0,1,.78.3,1.27,1.27,0,0,1,.25.85v1.88a.17.17,0,0,0,0,.13l.1.07.1.06A.09.09,0,0,1,127.67,36.54ZM126.92,35c0-.09,0-.13-.11-.13a1.43,1.43,0,0,0-.82.23.75.75,0,0,0-.24.6,1,1,0,0,0,0,.24.75.75,0,0,0,.1.2.58.58,0,0,0,.47.21,1.52,1.52,0,0,0,.45-.07.16.16,0,0,0,.12-.17Z"/><path class="cls-7" d="M129.47,36.35a.17.17,0,0,1-.07.14.62.62,0,0,1-.17.11l-.21.06-.16,0a.68.68,0,0,1-.57-.27,1.44,1.44,0,0,1-.2-.85V33.63s0-.06-.05-.07h-.17q-.12,0-.12-.18a.23.23,0,0,1,0-.13.09.09,0,0,1,.09,0H128c.08,0,.12,0,.12-.13v-.56a.86.86,0,0,1,0-.15,1.16,1.16,0,0,1,0-.18.53.53,0,0,1,.08-.15.18.18,0,0,1,.15-.07h.06c.08,0,.12.05.12.14v1c0,.05,0,.07.05.07h.46q.12,0,.12.18c0,.11,0,.17-.12.17h-.46s-.06,0-.06.07v1.92a1.15,1.15,0,0,0,.12.63.43.43,0,0,0,.36.15.58.58,0,0,0,.33-.1h0C129.45,36.23,129.47,36.27,129.47,36.35Z"/><path class="cls-7" d="M131.12,36.55c0,.07,0,.11-.12.11h-.91c-.08,0-.12,0-.12-.11a.14.14,0,0,1,.06-.12l.12-.09.12-.08a.17.17,0,0,0,0-.12V33.7a.1.1,0,0,0,0-.1l-.12,0-.12,0a.08.08,0,0,1-.06-.08.14.14,0,0,1,.05-.09.57.57,0,0,1,.13-.08l.15,0,.14,0h.22c.08,0,.12.05.12.13v2.79a.13.13,0,0,0,.05.12l.12.09a.48.48,0,0,1,.11.09A.13.13,0,0,1,131.12,36.55Zm-.34-4a.24.24,0,0,1-.26.27c-.17,0-.26-.1-.26-.28a.24.24,0,0,1,.26-.27C130.69,32.26,130.78,32.35,130.78,32.54Z"/><path class="cls-7" d="M134.14,35a2.58,2.58,0,0,1-.09.7,1.68,1.68,0,0,1-.25.54,1,1,0,0,1-.38.36,1.14,1.14,0,0,1-.51.13,1,1,0,0,1-.51-.13,1.18,1.18,0,0,1-.39-.35,1.68,1.68,0,0,1-.25-.54,2.65,2.65,0,0,1-.09-.71,2.69,2.69,0,0,1,.2-1.07,1.13,1.13,0,0,1,1-.73,1,1,0,0,1,.49.12,1.11,1.11,0,0,1,.39.36,1.7,1.7,0,0,1,.25.56A2.59,2.59,0,0,1,134.14,35Zm-.47,0a3.64,3.64,0,0,0,0-.6,1.53,1.53,0,0,0-.13-.47,1,1,0,0,0-.24-.31.57.57,0,0,0-.66,0,.87.87,0,0,0-.34.5,3.13,3.13,0,0,0-.1.86,2.82,2.82,0,0,0,0,.52,1.28,1.28,0,0,0,.14.43.85.85,0,0,0,.23.29.56.56,0,0,0,.35.11.58.58,0,0,0,.32-.1.64.64,0,0,0,.24-.27,1.3,1.3,0,0,0,.15-.42A2.89,2.89,0,0,0,133.67,35Z"/><path class="cls-7" d="M137.62,36.55c0,.07,0,.11-.12.11h-.91c-.08,0-.12,0-.12-.11a.14.14,0,0,1,.05-.1l.12-.06.12-.07a.13.13,0,0,0,.06-.11V34.32a1.22,1.22,0,0,0,0-.26.87.87,0,0,0-.1-.24.52.52,0,0,0-.16-.17.34.34,0,0,0-.22-.07.74.74,0,0,0-.34.11,3.35,3.35,0,0,0-.41.28v2.24a.16.16,0,0,0,.05.11l.12.07.12.06a.14.14,0,0,1,.05.1.1.1,0,0,1-.11.11h-.92c-.08,0-.12,0-.12-.11a.12.12,0,0,1,.06-.1l.12-.06.12-.07a.14.14,0,0,0,0-.11V33.7a.1.1,0,0,0,0-.1l-.12,0-.12,0a.08.08,0,0,1-.06-.08.14.14,0,0,1,.05-.09.57.57,0,0,1,.13-.08l.15,0,.14,0h.22c.08,0,.12.05.12.13v.35a3.12,3.12,0,0,1,.47-.39.88.88,0,0,1,.45-.14.68.68,0,0,1,.6.32,1.59,1.59,0,0,1,.2.83v1.89a.16.16,0,0,0,0,.11l.12.07.13.06A.14.14,0,0,1,137.62,36.55Z"/><path class="cls-7" d="M138.74,36.52a.65.65,0,0,1,0,.19.49.49,0,0,1-.06.17.35.35,0,0,1-.11.13.25.25,0,0,1-.16.06c-.1,0-.14,0-.14-.12a.14.14,0,0,1,0-.07l.07,0h0s.08,0,.09-.07l0-.09h0a.29.29,0,1,1,0-.58c.19,0,.28.1.28.29Z"/><path class="cls-7" d="M145.13,36.55c0,.07,0,.11-.13.11h-.89c-.09,0-.13,0-.13-.11a.12.12,0,0,1,.06-.1l.11-.06a.35.35,0,0,0,.12-.07s0-.06,0-.11V32.94s0,0,0,0,0,0-.06.14l-1.05,3.13c-.06.15-.12.22-.19.22s-.15-.07-.19-.23l-1-3.25c0-.1-.06-.15-.07-.15s0,0,0,.06v3.4a.13.13,0,0,0,.05.11l.12.07.12.06a.12.12,0,0,1,.06.1c0,.07,0,.11-.12.11h-.8c-.08,0-.12,0-.12-.11a.12.12,0,0,1,.06-.1l.12-.06.12-.06a.14.14,0,0,0,0-.11v-3.8a.12.12,0,0,0,0-.1l-.12-.07-.12-.06a.12.12,0,0,1-.06-.1c0-.07,0-.11.13-.11h.72c.07,0,.13.07.18.22l1,3.26s0,.06,0,.06,0,0,0-.06l1.12-3.26c.05-.15.12-.22.2-.22H145a.1.1,0,0,1,.11.11c0,.07-.06.12-.18.17s-.17.08-.17.17v3.78a.13.13,0,0,0,.05.11l.12.07.13.06A.14.14,0,0,1,145.13,36.55Z"/><path class="cls-7" d="M146.89,36.55a.1.1,0,0,1-.11.11h-.92c-.08,0-.12,0-.12-.11a.14.14,0,0,1,.06-.12l.12-.09.12-.08a.17.17,0,0,0,.05-.12V33.7a.1.1,0,0,0-.05-.1l-.12,0-.12,0a.08.08,0,0,1-.06-.08.14.14,0,0,1,0-.09.57.57,0,0,1,.13-.08l.15,0,.14,0h.22c.08,0,.12.05.12.13v2.79a.17.17,0,0,0,0,.12l.12.09a.48.48,0,0,1,.11.09A.13.13,0,0,1,146.89,36.55Zm-.34-4a.24.24,0,0,1-.26.27c-.17,0-.26-.1-.26-.28a.24.24,0,0,1,.26-.27C146.46,32.26,146.55,32.35,146.55,32.54Z"/><path class="cls-7" d="M150.31,36.55c0,.07,0,.11-.12.11h-.91c-.08,0-.12,0-.12-.11a.14.14,0,0,1,.05-.1l.12-.06.12-.07a.13.13,0,0,0,.06-.11V34.32a1.22,1.22,0,0,0,0-.26.87.87,0,0,0-.1-.24.52.52,0,0,0-.16-.17.34.34,0,0,0-.22-.07.74.74,0,0,0-.34.11,3.35,3.35,0,0,0-.41.28v2.24a.16.16,0,0,0,.05.11l.12.07.12.06a.14.14,0,0,1,.05.1.1.1,0,0,1-.11.11h-.92a.1.1,0,0,1-.11-.11.11.11,0,0,1,.05-.1l.12-.06.12-.07a.14.14,0,0,0,0-.11V33.7a.1.1,0,0,0,0-.1l-.12,0-.12,0s-.05,0-.05-.08a.11.11,0,0,1,.05-.09.36.36,0,0,1,.12-.08l.15,0,.14,0h.22c.08,0,.12.05.12.13v.35a3.12,3.12,0,0,1,.47-.39.88.88,0,0,1,.45-.14.68.68,0,0,1,.6.32,1.59,1.59,0,0,1,.2.83v1.89a.14.14,0,0,0,.06.11l.12.07.12.06A.14.14,0,0,1,150.31,36.55Z"/><path class="cls-7" d="M152,36.55a.1.1,0,0,1-.11.11H151a.1.1,0,0,1-.11-.11.13.13,0,0,1,0-.12l.12-.09.12-.08a.17.17,0,0,0,.05-.12V33.7a.1.1,0,0,0-.05-.1l-.12,0-.12,0s0,0,0-.08a.11.11,0,0,1,0-.09.36.36,0,0,1,.12-.08l.15,0,.14,0h.22c.08,0,.12.05.12.13v2.79a.17.17,0,0,0,.05.12l.12.09.12.09A.14.14,0,0,1,152,36.55Zm-.34-4a.24.24,0,0,1-.26.27c-.17,0-.25-.1-.26-.28a.24.24,0,0,1,.26-.27C151.58,32.26,151.67,32.35,151.67,32.54Z"/><path class="cls-7" d="M154.6,35.7a.93.93,0,0,1-.26.72,1.07,1.07,0,0,1-.76.24,1.67,1.67,0,0,1-.43,0,2,2,0,0,1-.47-.19l-.11-.72c0-.08,0-.11.14-.11s.09,0,.11.1l.09.31a.55.55,0,0,0,.19.26.62.62,0,0,0,.37.11.64.64,0,0,0,.52-.2.72.72,0,0,0,.16-.49c0-.24-.25-.47-.74-.68a1.06,1.06,0,0,1-.74-1,.79.79,0,0,1,.25-.62,1,1,0,0,1,.7-.22,1.61,1.61,0,0,1,.37,0,1.44,1.44,0,0,1,.37.15l.11.72a.1.1,0,0,1-.11.11.13.13,0,0,1-.14-.1l-.09-.31a.8.8,0,0,0-.18-.25.37.37,0,0,0-.28-.1.54.54,0,0,0-.42.15.52.52,0,0,0-.14.38c0,.28.25.53.75.74a1.42,1.42,0,0,1,.56.42A1,1,0,0,1,154.6,35.7Z"/><path class="cls-7" d="M156.93,36.35a.17.17,0,0,1-.07.14.62.62,0,0,1-.17.11l-.21.06-.16,0a.67.67,0,0,1-.57-.27,1.44,1.44,0,0,1-.2-.85V33.63s0-.06-.05-.07h-.17q-.12,0-.12-.18a.23.23,0,0,1,0-.13.09.09,0,0,1,.09,0h.11c.08,0,.12,0,.12-.13v-.56a.86.86,0,0,1,0-.15.58.58,0,0,1,0-.18.36.36,0,0,1,.08-.15.18.18,0,0,1,.15-.07h.06c.08,0,.12.05.12.14v1c0,.05,0,.07,0,.07h.46q.12,0,.12.18c0,.11,0,.17-.12.17h-.46s-.06,0-.06.07v1.92a1.15,1.15,0,0,0,.12.63.43.43,0,0,0,.36.15.58.58,0,0,0,.33-.1h0C156.91,36.23,156.93,36.27,156.93,36.35Z"/><path class="cls-7" d="M159.39,34a.1.1,0,0,1,0,.08l-.06,0a.06.06,0,0,1-.07,0,1,1,0,0,0-.07-.16l-.13-.2a.3.3,0,0,0-.24-.11.43.43,0,0,0-.26.1,1.51,1.51,0,0,0-.29.28v2.24a.13.13,0,0,0,0,.11l.12.07.11.06a.12.12,0,0,1,.06.1c0,.07,0,.11-.12.11h-.91c-.08,0-.12,0-.12-.11a.14.14,0,0,1,0-.1l.12-.06.13-.07a.14.14,0,0,0,.05-.11V33.7a.1.1,0,0,0-.05-.1l-.13,0-.12,0a.08.08,0,0,1,0-.08.14.14,0,0,1,0-.09l.12-.08.16,0,.14,0h.22c.08,0,.12.05.12.13v.35a1.41,1.41,0,0,1,.34-.38.63.63,0,0,1,.39-.13,1,1,0,0,1,.35.09l.06.69v0Z"/><path class="cls-7" d="M162.55,33.32s0,0-.05.07l-.13.06-.13.09a.21.21,0,0,0-.09.15l-1.1,3.76a.86.86,0,0,1-.24.45.54.54,0,0,1-.33.14.46.46,0,0,1-.19,0l-.19-.08a.64.64,0,0,1-.15-.13.3.3,0,0,1,0-.16c0-.08,0-.11.1-.11l.1,0,.09.06a.27.27,0,0,0,.1.06.35.35,0,0,0,.16,0,.34.34,0,0,0,.2-.08.57.57,0,0,0,.14-.27l.21-.72-.83-2.93a.33.33,0,0,0-.1-.15l-.13-.08-.12-.06a.08.08,0,0,1,0-.08c0-.07,0-.1.11-.1h1c.07,0,.11,0,.11.1s0,0-.05.07l-.11,0-.1.06s-.05,0-.05.09h0a.2.2,0,0,1,0,0l.56,2s0,.08,0,.08,0,0,0-.08l.56-2a.2.2,0,0,0,0,0,.14.14,0,0,0-.05-.09l-.11-.06-.11,0s-.05,0-.05-.07,0-.1.12-.1h.78A.1.1,0,0,1,162.55,33.32Z"/><path class="cls-7" d="M167.15,35a3.06,3.06,0,0,1-.08.7,1.93,1.93,0,0,1-.25.54,1.11,1.11,0,0,1-.39.36,1.07,1.07,0,0,1-.51.13,1,1,0,0,1-.5-.13,1.18,1.18,0,0,1-.39-.35,1.68,1.68,0,0,1-.25-.54,2.65,2.65,0,0,1-.09-.71,2.69,2.69,0,0,1,.2-1.07,1.11,1.11,0,0,1,1-.73,1,1,0,0,1,.49.12,1.11,1.11,0,0,1,.39.36,1.71,1.71,0,0,1,.26.56A3,3,0,0,1,167.15,35Zm-.47,0a3.7,3.7,0,0,0,0-.6,1.53,1.53,0,0,0-.14-.47.93.93,0,0,0-.23-.31.58.58,0,0,0-.34-.11.53.53,0,0,0-.32.1.79.79,0,0,0-.34.5,3.1,3.1,0,0,0-.11.86,2.78,2.78,0,0,0,.05.52,1.28,1.28,0,0,0,.13.43.76.76,0,0,0,.24.29.53.53,0,0,0,.34.11.64.64,0,0,0,.33-.1.8.8,0,0,0,.24-.27,1.59,1.59,0,0,0,.14-.42A2.22,2.22,0,0,0,166.68,35Z"/><path class="cls-7" d="M169.32,32.12c0,.09,0,.14-.12.14a.54.54,0,0,0-.47.2,1.21,1.21,0,0,0-.16.69c0,.05,0,.07.06.07h.28c.08,0,.12.06.12.17s0,.18-.11.18h-.29s-.06,0-.06.07v2.57a.11.11,0,0,0,.06.11.41.41,0,0,0,.11.07l.12.06a.11.11,0,0,1,0,.1.1.1,0,0,1-.11.11h-.91c-.08,0-.12,0-.12-.11a.14.14,0,0,1,0-.1l.12-.06a.35.35,0,0,0,.12-.07.11.11,0,0,0,.06-.11V33.69a.11.11,0,0,0-.12-.12h-.11q-.12,0-.12-.18c0-.11,0-.17.12-.17h.17s.06,0,.06-.07a1.23,1.23,0,0,1,.26-.89,1.07,1.07,0,0,1,.82-.28C169.28,32,169.32,32,169.32,32.12Z"/><path class="cls-7" d="M174.15,36.51q0,.15-.12.15h-2.56c-.09,0-.13,0-.13-.11a.12.12,0,0,1,.06-.1l.11-.06.12-.07s.05-.06.05-.11V32.43a.13.13,0,0,0-.05-.11l-.12-.06-.12-.06a.11.11,0,0,1-.06-.11.1.1,0,0,1,.11-.11H174c.07,0,.11.05.11.14v.48c0,.09,0,.14-.09.14s-.06,0-.08-.07a.58.58,0,0,1,0-.14l-.06-.14a.09.09,0,0,0-.08-.06h-1.53c-.08,0-.11,0-.11.12V34c0,.09,0,.14.12.14h.66A.09.09,0,0,0,173,34l.06-.14a.58.58,0,0,1,0-.14s.05-.07.08-.07.09.05.09.14v.88c0,.11,0,.16-.09.16a.09.09,0,0,1-.08-.06.66.66,0,0,1,0-.15l-.06-.14a.09.09,0,0,0-.09-.07h-.66c-.08,0-.12,0-.12.16v1.58c0,.08,0,.12.1.12h1.52a.11.11,0,0,0,.1-.06.59.59,0,0,0,.06-.14L174,36s0-.07.08-.07.08.05.08.14Z"/><path class="cls-7" d="M177.33,36.54c0,.08-.06.12-.17.12a.55.55,0,0,1-.52-.28,2.14,2.14,0,0,1-.42.22,1.08,1.08,0,0,1-.38.08.77.77,0,0,1-.5-.16,1.55,1.55,0,0,1-.33-.39,1.78,1.78,0,0,1-.19-.5,2.24,2.24,0,0,1-.06-.48,4.13,4.13,0,0,1,.07-.67,2.69,2.69,0,0,1,.22-.64,1.46,1.46,0,0,1,.39-.49.93.93,0,0,1,.57-.19.76.76,0,0,1,.21,0l.24.05h0s.07,0,.07-.11v-1s0-.08-.05-.1a.17.17,0,0,0-.1,0l-.12,0a.08.08,0,0,1,0-.08.12.12,0,0,1,.06-.1l.12-.08.15-.05h.36c.07,0,.11,0,.11.14v4.4a.2.2,0,0,0,0,.14.28.28,0,0,0,.09.07l.1.06S177.32,36.5,177.33,36.54Zm-.74-2.78a.17.17,0,0,0-.09-.16.83.83,0,0,0-.4-.11.56.56,0,0,0-.32.11.81.81,0,0,0-.26.31,1.66,1.66,0,0,0-.18.49,3.22,3.22,0,0,0-.07.64,1.76,1.76,0,0,0,.21,1,.61.61,0,0,0,.52.33h.15l.2,0a.68.68,0,0,0,.17-.09.17.17,0,0,0,.07-.14Z"/><path class="cls-7" d="M180.75,36.45a.12.12,0,0,1-.05.1.74.74,0,0,1-.13.08l-.15,0a.3.3,0,0,1-.12,0h-.21c-.09,0-.14-.06-.14-.17v-.34a1.27,1.27,0,0,1-.88.48.68.68,0,0,1-.62-.32,1.45,1.45,0,0,1-.22-.85V33.7a.11.11,0,0,0,0-.1l-.12,0-.12,0s-.05,0-.05-.09a.12.12,0,0,1,0-.09.57.57,0,0,1,.13-.08l.17,0,.17,0h.17c.08,0,.12.05.12.13v2.14a1.33,1.33,0,0,0,0,.28,1,1,0,0,0,.11.25.73.73,0,0,0,.17.18.48.48,0,0,0,.24.06,1.21,1.21,0,0,0,.71-.36V33.7a.11.11,0,0,0,0-.1l-.12,0-.12,0a.08.08,0,0,1-.06-.09c0-.07.06-.12.17-.17a1.4,1.4,0,0,1,.53-.07c.07,0,.11.05.11.13v2.86a.12.12,0,0,0,.05.11l.12,0,.12,0S180.75,36.41,180.75,36.45Z"/><path class="cls-7" d="M183.42,36.33a.16.16,0,0,1-.08.14.55.55,0,0,1-.2.11,1,1,0,0,1-.25.07l-.22,0a1.2,1.2,0,0,1-.57-.13,1.18,1.18,0,0,1-.43-.34,1.52,1.52,0,0,1-.27-.54,2.43,2.43,0,0,1-.09-.68,2.61,2.61,0,0,1,.09-.69,2,2,0,0,1,.25-.58,1.38,1.38,0,0,1,.41-.39,1,1,0,0,1,.55-.14,2.3,2.3,0,0,1,.7.14v.55c0,.09,0,.14-.12.14a.11.11,0,0,1-.09-.06,1,1,0,0,1-.08-.15l-.07-.16a.25.25,0,0,0-.1-.12l-.14-.06h-.14a.53.53,0,0,0-.31.11,1.07,1.07,0,0,0-.26.32,2.08,2.08,0,0,0-.17.48,2.4,2.4,0,0,0-.07.62,1.94,1.94,0,0,0,.08.56,1.37,1.37,0,0,0,.2.44,1,1,0,0,0,.32.28.77.77,0,0,0,.4.1,1.4,1.4,0,0,0,.55-.13C183.38,36.24,183.42,36.27,183.42,36.33Z"/><path class="cls-7" d="M186.39,36.54q0,.12-.18.12a.61.61,0,0,1-.52-.24,1.48,1.48,0,0,1-.78.24.79.79,0,0,1-.64-.26,1,1,0,0,1-.22-.68,1.12,1.12,0,0,1,.1-.5.81.81,0,0,1,.28-.33,1.19,1.19,0,0,1,.44-.2,2.49,2.49,0,0,1,.57-.06h.09c.07,0,.11-.05.11-.14v-.25a1,1,0,0,0-.14-.58.52.52,0,0,0-.43-.2,1.87,1.87,0,0,0-.34,0,1.16,1.16,0,0,0-.32.08c-.08,0-.12,0-.12-.11a.18.18,0,0,1,.12-.16,1.25,1.25,0,0,1,.66-.14,1,1,0,0,1,.78.3,1.27,1.27,0,0,1,.25.85v1.88a.17.17,0,0,0,0,.13l.1.07.1.06A.09.09,0,0,1,186.39,36.54ZM185.64,35c0-.09,0-.13-.11-.13a1.43,1.43,0,0,0-.82.23.75.75,0,0,0-.24.6,1,1,0,0,0,0,.24.75.75,0,0,0,.1.2.58.58,0,0,0,.47.21,1.52,1.52,0,0,0,.45-.07.16.16,0,0,0,.12-.17Z"/><path class="cls-7" d="M188.19,36.35a.17.17,0,0,1-.07.14.62.62,0,0,1-.17.11l-.21.06-.16,0a.68.68,0,0,1-.57-.27,1.44,1.44,0,0,1-.19-.85V33.63a.07.07,0,0,0-.06-.07h-.17c-.08,0-.11-.06-.11-.18a.24.24,0,0,1,0-.13.09.09,0,0,1,.09,0h.11c.08,0,.12,0,.12-.13v-.56a.86.86,0,0,1,0-.15,1.16,1.16,0,0,1,0-.18.53.53,0,0,1,.08-.15.18.18,0,0,1,.15-.07h.06c.08,0,.12.05.12.14v1c0,.05,0,.07.05.07h.47c.07,0,.11.06.11.18s0,.17-.11.17h-.47s-.06,0-.06.07v1.92a1.15,1.15,0,0,0,.12.63.43.43,0,0,0,.36.15.56.56,0,0,0,.33-.1h0C188.17,36.23,188.19,36.27,188.19,36.35Z"/><path class="cls-7" d="M189.84,36.55a.1.1,0,0,1-.11.11h-.92c-.08,0-.12,0-.12-.11a.14.14,0,0,1,.06-.12l.12-.09.12-.08a.17.17,0,0,0,0-.12V33.7a.1.1,0,0,0,0-.1l-.12,0-.12,0a.08.08,0,0,1-.06-.08.14.14,0,0,1,.05-.09.57.57,0,0,1,.13-.08l.15,0,.14,0h.22c.08,0,.12.05.12.13v2.79a.13.13,0,0,0,.05.12l.12.09a.48.48,0,0,1,.11.09A.13.13,0,0,1,189.84,36.55Zm-.34-4a.24.24,0,0,1-.26.27c-.17,0-.26-.1-.26-.28a.24.24,0,0,1,.26-.27C189.41,32.26,189.5,32.35,189.5,32.54Z"/><path class="cls-7" d="M192.86,35a2.58,2.58,0,0,1-.09.7,1.68,1.68,0,0,1-.25.54,1,1,0,0,1-.38.36,1.14,1.14,0,0,1-.51.13.93.93,0,0,1-.5-.13,1.12,1.12,0,0,1-.4-.35,1.93,1.93,0,0,1-.25-.54,2.65,2.65,0,0,1-.09-.71,2.69,2.69,0,0,1,.2-1.07,1.19,1.19,0,0,1,.55-.61,1.14,1.14,0,0,1,.49-.12,1,1,0,0,1,.49.12,1.11,1.11,0,0,1,.39.36,1.7,1.7,0,0,1,.25.56A2.59,2.59,0,0,1,192.86,35Zm-.47,0a5.32,5.32,0,0,0,0-.6,1.86,1.86,0,0,0-.14-.47.83.83,0,0,0-.24-.31.53.53,0,0,0-.34-.11.5.5,0,0,0-.31.1.79.79,0,0,0-.34.5,3.1,3.1,0,0,0-.11.86,2.82,2.82,0,0,0,0,.52,1.28,1.28,0,0,0,.14.43.85.85,0,0,0,.23.29.56.56,0,0,0,.35.11.58.58,0,0,0,.32-.1.64.64,0,0,0,.24-.27,1.3,1.3,0,0,0,.15-.42A2.89,2.89,0,0,0,192.39,35Z"/><path class="cls-7" d="M196.34,36.55c0,.07,0,.11-.12.11h-.91c-.08,0-.12,0-.12-.11a.14.14,0,0,1,.05-.1l.12-.06.12-.07a.13.13,0,0,0,.06-.11V34.32a1.22,1.22,0,0,0,0-.26.87.87,0,0,0-.1-.24.52.52,0,0,0-.16-.17.34.34,0,0,0-.22-.07.74.74,0,0,0-.34.11,3.35,3.35,0,0,0-.41.28v2.24a.16.16,0,0,0,.05.11l.12.07.12.06a.14.14,0,0,1,.05.1.1.1,0,0,1-.11.11h-.92a.1.1,0,0,1-.11-.11.11.11,0,0,1,.05-.1l.12-.06.12-.07a.14.14,0,0,0,0-.11V33.7a.1.1,0,0,0,0-.1l-.12,0-.12,0s-.05,0-.05-.08a.11.11,0,0,1,.05-.09.36.36,0,0,1,.12-.08l.15,0,.14,0h.22c.08,0,.12.05.12.13v.35a3.12,3.12,0,0,1,.47-.39.88.88,0,0,1,.45-.14.68.68,0,0,1,.6.32,1.59,1.59,0,0,1,.2.83v1.89a.14.14,0,0,0,.06.11l.12.07.12.06A.14.14,0,0,1,196.34,36.55Z"/></g></g></svg>